<svg xmlns="http://www.w3.org/2000/svg" width="349" height="59" viewBox="0 0 349 59" fill="none">
<path fill-rule="evenodd" clip-rule="evenodd" d="M23.597 0.20922L348 0L335.43 59H324.403H0L12.5703 0.20922H23.597Z" fill="#0054A0"/>
<path d="M161.581 21.1312L161.164 23.0142C160.955 23.4327 160.955 23.8511 160.747 24.2695C160.538 24.688 160.538 24.8972 160.33 25.1064C160.122 25.3156 160.122 25.5249 159.913 25.7341H163.04L164.083 20.922L161.581 21.1312ZM165.542 20.0851L164.291 25.9433H164.917L164.291 28.6632H163.04L163.457 26.9894H158.871L158.454 28.6632H157.203L157.828 25.9433H158.454C158.871 25.7341 159.079 25.3156 159.288 24.8972C159.496 24.4788 159.705 23.8511 159.913 23.0142L160.538 20.0851H165.542ZM151.573 23.6419C151.365 24.2695 151.365 24.688 151.365 24.8972C151.365 25.1064 151.365 25.5249 151.365 25.5249C151.365 25.7341 151.573 25.7341 151.782 25.7341C151.99 25.7341 152.199 25.7341 152.616 25.7341C153.033 25.7341 153.241 25.7341 153.45 25.7341C153.658 25.7341 153.867 25.5249 154.075 25.3156C154.284 25.1064 154.284 24.8972 154.492 24.688C154.701 24.4788 154.701 23.8511 154.909 23.4327C155.118 22.805 155.118 22.3866 155.118 21.9681C155.118 21.5497 155.118 21.3405 155.118 21.3405C155.118 21.1312 154.909 21.1312 154.701 21.1312C154.492 21.1312 154.284 21.1312 153.867 21.1312C153.45 21.1312 153.241 21.1312 153.033 21.1312C152.824 21.1312 152.616 21.3405 152.407 21.3405C152.199 21.5497 152.199 21.7589 151.99 21.9681C151.99 22.5958 151.782 23.0142 151.573 23.6419ZM150.322 23.4327C150.531 22.805 150.739 22.1773 150.739 21.7589C150.948 21.3405 151.156 20.922 151.365 20.7128C151.573 20.5036 151.99 20.2944 152.407 20.0851C152.824 19.8759 153.241 19.8759 153.867 19.8759C154.492 19.8759 154.909 19.8759 155.326 20.0851C155.743 20.2944 155.952 20.2944 156.16 20.7128C156.369 20.922 156.369 21.3405 156.369 21.7589C156.369 22.1773 156.369 22.805 156.16 23.4327C155.952 24.2695 155.743 24.8972 155.535 25.3156C155.326 25.7341 155.118 26.1525 154.909 26.3617C154.701 26.571 154.284 26.7802 153.867 26.9894C153.45 26.9894 153.033 27.1986 152.407 27.1986C151.782 27.1986 151.156 27.1986 150.948 26.9894C150.531 26.9894 150.322 26.7802 150.114 26.3617C150.114 26.1525 150.114 25.7341 150.114 25.3156C150.114 24.8972 150.114 24.2695 150.322 23.4327ZM143.025 25.9433H144.693C144.902 25.9433 145.319 25.9433 145.527 25.9433C145.736 25.9433 145.944 25.7341 145.944 25.7341C146.153 25.5249 146.153 25.3156 146.153 25.1064C146.153 24.8972 146.153 24.688 146.153 24.4788C146.153 24.2695 145.944 24.2695 145.944 24.2695C145.736 24.2695 145.527 24.2695 145.319 24.2695H143.442L143.025 25.9433ZM143.651 23.0142H145.319C145.527 23.0142 145.736 23.0142 145.944 23.0142C146.153 23.0142 146.153 23.0142 146.361 22.805L146.57 22.5958C146.57 22.3866 146.778 22.3866 146.778 22.1773C146.778 21.7589 146.778 21.5497 146.778 21.5497C146.57 21.3405 146.361 21.3405 146.153 21.3405H144.276L143.651 23.0142ZM141.566 26.9894L143.025 19.8759H146.57C147.195 19.8759 147.612 20.0851 148.029 20.2944C148.237 20.5036 148.446 20.922 148.237 21.5497C148.237 21.9681 148.029 22.3866 147.821 22.5958C147.612 22.805 147.404 23.0142 146.987 23.2234C147.404 23.2234 147.612 23.4327 147.821 23.6419C148.029 23.8511 148.029 24.2695 147.821 24.688C147.821 24.8972 147.612 25.3156 147.612 25.5249C147.404 25.7341 147.404 25.9433 147.195 26.1525C146.987 26.3617 146.778 26.3617 146.57 26.571C146.361 26.571 145.944 26.7802 145.736 26.7802L141.566 26.9894ZM137.604 24.688L137.187 21.1312L135.311 24.688H137.604ZM137.604 25.7341H134.477L133.852 27.1986H132.392L136.145 20.0851H138.23L139.064 27.1986H137.604V25.7341ZM127.18 22.1773C127.18 21.9681 127.388 21.7589 127.388 21.5497C127.597 21.3405 127.597 21.3405 127.805 21.3405C128.014 21.3405 128.431 21.3405 128.639 21.3405C129.056 21.3405 129.265 21.3405 129.473 21.3405C129.682 21.3405 129.89 21.5497 129.89 21.5497C129.89 21.7589 129.89 21.9681 129.89 22.1773C129.89 22.5958 129.682 22.805 129.473 23.0142C129.473 23.0142 129.265 23.0142 128.848 23.0142H127.388L127.18 24.0603H128.848C129.265 24.0603 129.473 24.0603 129.682 24.2695C129.89 24.4788 129.89 24.688 129.89 25.1064C129.89 25.3156 129.682 25.5249 129.682 25.7341C129.473 25.9433 129.265 25.9433 129.056 25.9433C128.848 25.9433 128.431 25.9433 128.014 25.9433C127.597 25.9433 127.388 25.9433 127.18 25.9433C126.971 25.9433 126.763 25.7341 126.763 25.7341C126.763 25.7341 126.554 25.5249 126.554 25.3156C126.554 25.1064 126.554 24.8972 126.554 24.688H125.303V24.8972C125.095 25.5249 125.303 25.9433 125.303 26.1525C125.512 26.3617 125.72 26.571 126.137 26.7802C126.554 26.9894 126.971 26.9894 127.597 26.9894C128.431 26.9894 129.056 26.9894 129.473 26.7802C129.89 26.571 130.307 26.3617 130.516 26.1525C130.724 25.9433 130.933 25.5249 130.933 24.8972C130.933 24.4788 130.933 24.0603 130.933 23.8511C130.724 23.6419 130.516 23.4327 130.099 23.2234C130.307 23.2234 130.516 23.0142 130.724 22.805C130.933 22.5958 131.141 22.5958 131.141 22.3866C131.35 22.1773 131.35 21.9681 131.35 21.5497C131.35 21.1312 131.35 20.7128 131.35 20.5036C131.141 20.2944 130.933 20.0851 130.516 19.8759C130.099 19.6667 129.682 19.6667 129.056 19.6667C128.431 19.6667 127.805 19.6667 127.388 19.8759C127.18 20.2944 126.763 20.5036 126.554 20.922C126.346 21.1312 126.137 21.7589 125.929 22.1773H127.18ZM115.713 19.6667C116.338 19.6667 116.755 19.6667 117.172 19.4575C117.589 19.2483 117.798 19.039 117.798 18.4114H116.755C116.755 18.6206 116.755 18.6206 116.547 18.8298L116.338 19.039C116.13 19.039 116.13 19.039 115.713 19.039C115.504 19.039 115.296 19.039 115.296 19.039C115.087 19.039 115.087 19.039 115.087 18.8298V18.6206H114.045C114.045 19.039 114.045 19.4575 114.253 19.6667C114.67 19.6667 115.087 19.6667 115.713 19.6667ZM118.84 20.0851H116.964L113.628 24.8972C113.419 25.1064 113.419 25.3156 113.211 25.3156C113.002 25.5249 113.002 25.7341 112.794 25.9433C113.002 25.5249 113.002 25.1064 113.211 24.688L114.253 20.0851H113.002L111.334 27.1986H113.211L116.547 22.3866C116.755 22.1773 116.964 21.7589 117.381 21.1312C117.172 21.5497 117.172 21.9681 116.964 22.3866L116.13 27.1986H117.381L118.84 20.0851ZM109.666 20.0851H107.79L104.246 24.688C104.037 24.8972 103.829 25.3156 103.412 25.7341C103.62 25.3156 103.62 24.8972 103.829 24.4788L104.871 19.8759H103.62L101.952 27.1986H103.829L107.165 22.3866C107.373 22.1773 107.582 21.7589 107.999 21.1312C107.79 21.5497 107.79 21.9681 107.582 22.3866L106.748 27.1986H108.207L109.666 20.0851ZM95.906 20.0851L95.4891 23.0142H96.1145L99.0334 20.0851H100.701L97.157 23.4327L99.4504 26.9894H97.7825L95.906 24.0603H95.2806L94.4466 27.1986H93.1957L94.6551 20.0851H95.906ZM90.0683 24.688H91.3192V25.1064C91.1107 25.7341 91.1107 26.1525 90.6937 26.3617C90.4853 26.7802 90.0683 26.9894 89.6513 26.9894C89.2343 27.1986 88.6088 27.1986 87.7749 27.1986C87.1494 27.1986 86.7324 27.1986 86.3154 26.9894C85.8984 26.7802 85.6899 26.7802 85.4815 26.3617C85.4815 26.1525 85.4815 25.7341 85.4815 25.3156C85.4815 24.8972 85.4815 24.2695 85.6899 23.4327C85.8984 22.5958 86.1069 21.9681 86.3154 21.3405C86.5239 20.922 86.9409 20.5036 87.3579 20.2944C87.7749 20.0851 88.4003 19.8759 89.2343 19.8759C89.8598 19.8759 90.2768 19.8759 90.6937 20.0851C91.1107 20.0851 91.3192 20.2944 91.5277 20.5036C91.7362 20.7128 91.7362 20.922 91.7362 21.1312C91.7362 21.3405 91.7362 21.7589 91.7362 22.1773H90.4853C90.4853 21.7589 90.4853 21.5497 90.4853 21.3405C90.4853 21.1312 90.2768 21.1312 90.0683 20.922C89.8598 20.922 89.6513 20.922 89.0258 20.922C88.6088 20.922 88.1918 20.922 87.9834 21.1312C87.7749 21.3405 87.5664 21.5497 87.3579 21.7589C87.1494 22.1773 87.1494 22.5958 86.9409 23.4327C86.7324 23.8511 86.7324 24.2695 86.7324 24.688C86.7324 24.8972 86.7324 25.3156 86.7324 25.3156C86.7324 25.5249 86.9409 25.5249 87.1494 25.7341C87.3579 25.7341 87.5664 25.7341 87.9834 25.7341C88.4003 25.7341 88.8173 25.7341 89.0258 25.7341C89.2343 25.7341 89.4428 25.5249 89.6513 25.5249C89.8598 25.3156 89.8598 25.1064 89.8598 24.8972L90.0683 24.688ZM79.2267 23.6419H80.8946C81.3116 23.6419 81.5201 23.6419 81.7286 23.6419C81.9371 23.6419 82.1456 23.4327 82.1456 23.2234C82.3541 23.0142 82.3541 22.805 82.3541 22.5958C82.3541 22.1773 82.3541 21.9681 82.3541 21.7589C82.3541 21.5497 82.1456 21.3405 82.1456 21.3405C81.9371 21.3405 81.7286 21.1312 81.5201 21.1312H79.8522L79.2267 23.6419ZM77.1418 27.1986L78.6012 20.0851H81.5201C81.9371 20.0851 82.3541 20.0851 82.5626 20.0851C82.7711 20.0851 83.188 20.2944 83.188 20.5036C83.3965 20.7128 83.3965 20.922 83.605 21.1312C83.605 21.3405 83.605 21.7589 83.605 22.3866C83.605 22.805 83.3965 23.2234 83.188 23.6419C82.9796 23.8511 82.7711 24.2695 82.5626 24.4788C82.3541 24.688 82.1456 24.688 81.7286 24.8972C81.3116 24.8972 80.8946 25.1064 80.4776 25.1064H78.8097L78.6012 27.1986H77.1418ZM73.3889 24.688L72.972 21.1312L70.887 24.688H73.3889ZM73.3889 25.7341H70.2616L69.6361 27.1986H68.1766L71.9295 20.0851H74.0144L74.8484 27.1986H73.3889V25.7341ZM65.6747 24.688H66.9257V25.1064C66.7172 25.7341 66.7172 26.1525 66.3002 26.3617C66.0917 26.7802 65.6747 26.9894 65.2578 26.9894C64.8408 27.1986 64.2153 27.1986 63.3813 27.1986C62.7559 27.1986 62.3389 27.1986 61.9219 26.9894C61.5049 26.7802 61.2964 26.7802 61.0879 26.3617C60.8794 26.1525 60.8794 25.7341 60.8794 25.3156C60.8794 24.8972 60.8794 24.2695 61.0879 23.4327C61.2964 22.5958 61.5049 21.9681 61.7134 21.3405C61.9219 20.922 62.3389 20.5036 62.7559 20.2944C63.1728 20.0851 63.7983 19.8759 64.6323 19.8759C65.2578 19.8759 65.6747 19.8759 66.0917 20.0851C66.5087 20.0851 66.7172 20.2944 66.9257 20.5036C67.1342 20.7128 67.1342 20.922 67.1342 21.1312C67.1342 21.3405 67.1342 21.7589 67.1342 22.1773H65.8832C65.8832 21.7589 65.8832 21.5497 65.8832 21.3405C65.8832 21.1312 65.6747 21.1312 65.4662 20.922C65.2578 20.922 65.0493 20.922 64.4238 20.922C64.0068 20.922 63.5898 20.922 63.3813 21.1312C63.1728 21.3405 62.9643 21.5497 62.7559 21.7589C62.5474 22.1773 62.5474 22.5958 62.3389 23.4327C62.5474 24.0603 62.5474 24.4788 62.5474 24.8972C62.5474 25.1064 62.5474 25.5249 62.5474 25.5249C62.5474 25.7341 62.7559 25.7341 62.9643 25.9433C63.1728 25.9433 63.3813 25.9433 63.7983 25.9433C64.2153 25.9433 64.6323 25.9433 64.8408 25.9433C65.0493 25.9433 65.2578 25.7341 65.4662 25.7341C65.6747 25.5249 65.6747 25.3156 65.6747 25.1064V24.688ZM55.0417 20.0851L54.4162 23.0142H55.0417L57.9605 20.0851H59.6285L56.0841 23.4327L58.3775 27.1986H56.7096L54.8332 24.2695H54.2077L53.5822 27.1986H52.1228L53.5822 20.0851H55.0417ZM45.6595 23.6419C45.451 24.2695 45.451 24.688 45.451 24.8972C45.451 25.1064 45.451 25.5249 45.451 25.5249C45.451 25.7341 45.6595 25.7341 45.868 25.9433C46.0765 25.9433 46.285 25.9433 46.702 25.9433C47.119 25.9433 47.3275 25.9433 47.5359 25.9433C47.7444 25.9433 47.9529 25.7341 48.1614 25.5249C48.3699 25.3156 48.3699 25.1064 48.5784 24.8972C48.7869 24.688 48.7869 24.0603 48.9954 23.6419C49.2039 23.0142 49.2039 22.5958 49.2039 22.1773C49.2039 21.7589 49.2039 21.5497 49.2039 21.5497C49.2039 21.3405 48.9954 21.3405 48.7869 21.3405C48.5784 21.3405 48.3699 21.3405 47.9529 21.3405C47.536 21.3405 47.3275 21.3405 47.119 21.3405C46.9105 21.3405 46.702 21.5497 46.4935 21.5497C46.285 21.7589 46.285 21.9681 46.0765 22.1773C45.868 22.5958 45.868 23.0142 45.6595 23.6419ZM44.4086 23.4327C44.6171 22.805 44.8256 22.1773 44.8256 21.7589C45.034 21.3405 45.2425 20.922 45.451 20.7128C45.6595 20.5036 46.0765 20.2944 46.4935 20.0851C46.9105 19.8759 47.3275 19.8759 47.9529 19.8759C48.5784 19.8759 48.9954 19.8759 49.4124 20.0851C49.8294 20.2944 50.0379 20.2944 50.2463 20.7128C50.4548 20.922 50.4548 21.3405 50.4548 21.7589C50.4548 22.1773 50.4548 22.805 50.2463 23.4327C50.0379 24.2695 49.8294 24.8972 49.6209 25.3156C49.4124 25.7341 49.2039 26.1525 48.9954 26.3617C48.7869 26.571 48.3699 26.7802 47.9529 26.9894C47.536 26.9894 47.119 27.1986 46.4935 27.1986C45.868 27.1986 45.2425 27.1986 45.0341 26.9894C44.6171 26.9894 44.4086 26.7802 44.2001 26.3617C43.9916 26.1525 43.9916 25.7341 43.9916 25.3156C44.2001 24.8972 44.2001 24.2695 44.4086 23.4327ZM37.3199 25.9433H38.9878C39.4048 25.9433 39.8218 25.9433 40.0303 25.7341C40.2387 25.5249 40.4472 25.3156 40.4472 24.8972C40.4472 24.4788 40.4472 24.2695 40.2387 24.0603C40.0302 23.8511 39.8218 23.8511 39.4048 23.8511H37.7368L37.3199 25.9433ZM35.6519 27.1986L37.1114 20.0851H41.9067L41.6982 21.1312H38.1538L37.7368 22.805H40.0303C40.6557 22.805 41.0727 23.0142 41.4897 23.4327C41.6982 23.8511 41.9067 24.2695 41.6982 25.1064C41.6982 25.5249 41.4897 25.7341 41.2812 25.9433C41.0727 26.1525 40.8642 26.3617 40.8642 26.571C40.6557 26.7802 40.4472 26.9894 40.2387 26.9894C40.0302 26.9894 39.6133 27.1986 39.4048 27.1986H35.6519ZM30.8566 21.1312L30.4396 23.0142H33.7755L33.567 24.0603H30.2311L29.8142 25.9433H33.3585L33.15 27.1986H28.3547L29.8142 20.0851H34.6095L34.401 21.1312H30.8566ZM22.9339 20.0851H21.683L21.266 22.3866C21.0575 23.0142 21.0575 23.4327 21.266 23.6419C21.266 24.0603 21.4745 24.2695 21.8915 24.2695C22.3084 24.4788 22.7254 24.4788 23.3509 24.4788C24.1849 24.4788 24.8103 24.2695 25.2273 24.0603L24.3934 27.1986H25.6443L27.1038 20.0851H25.8528L25.2273 23.2234C25.0188 23.2234 25.0188 23.4327 24.8103 23.4327C24.6019 23.4327 24.3934 23.4327 24.1849 23.6419C23.9764 23.6419 23.7679 23.6419 23.3509 23.6419C23.1424 23.6419 22.9339 23.6419 22.7254 23.4327C22.5169 23.4327 22.5169 23.2234 22.5169 23.0142C22.5169 22.805 22.5169 22.5958 22.5169 22.3866L22.9339 20.0851Z" fill="white"/>
<path d="M161.581 21.1312L161.164 23.0142C160.955 23.4327 160.955 23.8511 160.747 24.2695C160.538 24.688 160.538 24.8972 160.33 25.1064C160.122 25.3156 160.122 25.5249 159.913 25.7341H163.04L164.083 20.922L161.581 21.1312ZM165.542 20.0851L164.291 25.9433H164.917L164.291 28.6632H163.04L163.457 26.9894H158.871L158.454 28.6632H157.203L157.828 25.9433H158.454C158.871 25.7341 159.079 25.3156 159.288 24.8972C159.496 24.4788 159.705 23.8511 159.913 23.0142L160.538 20.0851H165.542ZM151.573 23.6419C151.365 24.2695 151.365 24.688 151.365 24.8972C151.365 25.1064 151.365 25.5249 151.365 25.5249C151.365 25.7341 151.573 25.7341 151.782 25.7341C151.99 25.7341 152.199 25.7341 152.616 25.7341C153.033 25.7341 153.241 25.7341 153.45 25.7341C153.658 25.7341 153.867 25.5249 154.075 25.3156C154.284 25.1064 154.284 24.8972 154.492 24.688C154.701 24.4788 154.701 23.8511 154.909 23.4327C155.118 22.805 155.118 22.3866 155.118 21.9681C155.118 21.5497 155.118 21.3405 155.118 21.3405C155.118 21.1312 154.909 21.1312 154.701 21.1312C154.492 21.1312 154.284 21.1312 153.867 21.1312C153.45 21.1312 153.241 21.1312 153.033 21.1312C152.824 21.1312 152.616 21.3405 152.407 21.3405C152.199 21.5497 152.199 21.7589 151.99 21.9681C151.99 22.5958 151.782 23.0142 151.573 23.6419ZM150.322 23.4327C150.531 22.805 150.739 22.1773 150.739 21.7589C150.948 21.3405 151.156 20.922 151.365 20.7128C151.573 20.5036 151.99 20.2944 152.407 20.0851C152.824 19.8759 153.241 19.8759 153.867 19.8759C154.492 19.8759 154.909 19.8759 155.326 20.0851C155.743 20.2944 155.952 20.2944 156.16 20.7128C156.369 20.922 156.369 21.3405 156.369 21.7589C156.369 22.1773 156.369 22.805 156.16 23.4327C155.952 24.2695 155.743 24.8972 155.535 25.3156C155.326 25.7341 155.118 26.1525 154.909 26.3617C154.701 26.571 154.284 26.7802 153.867 26.9894C153.45 26.9894 153.033 27.1986 152.407 27.1986C151.782 27.1986 151.156 27.1986 150.948 26.9894C150.531 26.9894 150.322 26.7802 150.114 26.3617C150.114 26.1525 150.114 25.7341 150.114 25.3156C150.114 24.8972 150.114 24.2695 150.322 23.4327ZM143.025 25.9433H144.693C144.902 25.9433 145.319 25.9433 145.527 25.9433C145.736 25.9433 145.944 25.7341 145.944 25.7341C146.153 25.5249 146.153 25.3156 146.153 25.1064C146.153 24.8972 146.153 24.688 146.153 24.4788C146.153 24.2695 145.944 24.2695 145.944 24.2695C145.736 24.2695 145.527 24.2695 145.319 24.2695H143.442L143.025 25.9433ZM143.651 23.0142H145.319C145.527 23.0142 145.736 23.0142 145.944 23.0142C146.153 23.0142 146.153 23.0142 146.361 22.805L146.57 22.5958C146.57 22.3866 146.778 22.3866 146.778 22.1773C146.778 21.7589 146.778 21.5497 146.778 21.5497C146.57 21.3405 146.361 21.3405 146.153 21.3405H144.276L143.651 23.0142ZM141.566 26.9894L143.025 19.8759H146.57C147.195 19.8759 147.612 20.0851 148.029 20.2944C148.237 20.5036 148.446 20.922 148.237 21.5497C148.237 21.9681 148.029 22.3866 147.821 22.5958C147.612 22.805 147.404 23.0142 146.987 23.2234C147.404 23.2234 147.612 23.4327 147.821 23.6419C148.029 23.8511 148.029 24.2695 147.821 24.688C147.821 24.8972 147.612 25.3156 147.612 25.5249C147.404 25.7341 147.404 25.9433 147.195 26.1525C146.987 26.3617 146.778 26.3617 146.57 26.571C146.361 26.571 145.944 26.7802 145.736 26.7802L141.566 26.9894ZM137.604 24.688L137.187 21.1312L135.311 24.688H137.604ZM137.604 25.7341H134.477L133.852 27.1986H132.392L136.145 20.0851H138.23L139.064 27.1986H137.604V25.7341ZM127.18 22.1773C127.18 21.9681 127.388 21.7589 127.388 21.5497C127.597 21.3405 127.597 21.3405 127.805 21.3405C128.014 21.3405 128.431 21.3405 128.639 21.3405C129.056 21.3405 129.265 21.3405 129.473 21.3405C129.682 21.3405 129.89 21.5497 129.89 21.5497C129.89 21.7589 129.89 21.9681 129.89 22.1773C129.89 22.5958 129.682 22.805 129.473 23.0142C129.473 23.0142 129.265 23.0142 128.848 23.0142H127.388L127.18 24.0603H128.848C129.265 24.0603 129.473 24.0603 129.682 24.2695C129.89 24.4788 129.89 24.688 129.89 25.1064C129.89 25.3156 129.682 25.5249 129.682 25.7341C129.473 25.9433 129.265 25.9433 129.056 25.9433C128.848 25.9433 128.431 25.9433 128.014 25.9433C127.597 25.9433 127.388 25.9433 127.18 25.9433C126.971 25.9433 126.763 25.7341 126.763 25.7341C126.763 25.7341 126.554 25.5249 126.554 25.3156C126.554 25.1064 126.554 24.8972 126.554 24.688H125.303V24.8972C125.095 25.5249 125.303 25.9433 125.303 26.1525C125.512 26.3617 125.72 26.571 126.137 26.7802C126.554 26.9894 126.971 26.9894 127.597 26.9894C128.431 26.9894 129.056 26.9894 129.473 26.7802C129.89 26.571 130.307 26.3617 130.516 26.1525C130.724 25.9433 130.933 25.5249 130.933 24.8972C130.933 24.4788 130.933 24.0603 130.933 23.8511C130.724 23.6419 130.516 23.4327 130.099 23.2234C130.307 23.2234 130.516 23.0142 130.724 22.805C130.933 22.5958 131.141 22.5958 131.141 22.3866C131.35 22.1773 131.35 21.9681 131.35 21.5497C131.35 21.1312 131.35 20.7128 131.35 20.5036C131.141 20.2944 130.933 20.0851 130.516 19.8759C130.099 19.6667 129.682 19.6667 129.056 19.6667C128.431 19.6667 127.805 19.6667 127.388 19.8759C127.18 20.2944 126.763 20.5036 126.554 20.922C126.346 21.1312 126.137 21.7589 125.929 22.1773H127.18ZM115.713 19.6667C116.338 19.6667 116.755 19.6667 117.172 19.4575C117.589 19.2483 117.798 19.039 117.798 18.4114H116.755C116.755 18.6206 116.755 18.6206 116.547 18.8298L116.338 19.039C116.13 19.039 116.13 19.039 115.713 19.039C115.504 19.039 115.296 19.039 115.296 19.039C115.087 19.039 115.087 19.039 115.087 18.8298V18.6206H114.045C114.045 19.039 114.045 19.4575 114.253 19.6667C114.67 19.6667 115.087 19.6667 115.713 19.6667ZM118.84 20.0851H116.964L113.628 24.8972C113.419 25.1064 113.419 25.3156 113.211 25.3156C113.002 25.5249 113.002 25.7341 112.794 25.9433C113.002 25.5249 113.002 25.1064 113.211 24.688L114.253 20.0851H113.002L111.334 27.1986H113.211L116.547 22.3866C116.755 22.1773 116.964 21.7589 117.381 21.1312C117.172 21.5497 117.172 21.9681 116.964 22.3866L116.13 27.1986H117.381L118.84 20.0851ZM109.666 20.0851H107.79L104.246 24.688C104.037 24.8972 103.829 25.3156 103.412 25.7341C103.62 25.3156 103.62 24.8972 103.829 24.4788L104.871 19.8759H103.62L101.952 27.1986H103.829L107.165 22.3866C107.373 22.1773 107.582 21.7589 107.999 21.1312C107.79 21.5497 107.79 21.9681 107.582 22.3866L106.748 27.1986H108.207L109.666 20.0851ZM95.906 20.0851L95.4891 23.0142H96.1145L99.0334 20.0851H100.701L97.157 23.4327L99.4504 26.9894H97.7825L95.906 24.0603H95.2806L94.4466 27.1986H93.1957L94.6551 20.0851H95.906ZM90.0683 24.688H91.3192V25.1064C91.1107 25.7341 91.1107 26.1525 90.6938 26.3617C90.4853 26.7802 90.0683 26.9894 89.6513 26.9894C89.2343 27.1986 88.6088 27.1986 87.7749 27.1986C87.1494 27.1986 86.7324 27.1986 86.3154 26.9894C85.8984 26.7802 85.6899 26.7802 85.4815 26.3617C85.4815 26.1525 85.4815 25.7341 85.4815 25.3156C85.4815 24.8972 85.4815 24.2695 85.6899 23.4327C85.8984 22.5958 86.1069 21.9681 86.3154 21.3405C86.5239 20.922 86.9409 20.5036 87.3579 20.2944C87.7749 20.0851 88.4003 19.8759 89.2343 19.8759C89.8598 19.8759 90.2768 19.8759 90.6938 20.0851C91.1107 20.0851 91.3192 20.2944 91.5277 20.5036C91.7362 20.7128 91.7362 20.922 91.7362 21.1312C91.7362 21.3405 91.7362 21.7589 91.7362 22.1773H90.4853C90.4853 21.7589 90.4853 21.5497 90.4853 21.3405C90.4853 21.1312 90.2768 21.1312 90.0683 20.922C89.8598 20.922 89.6513 20.922 89.0258 20.922C88.6088 20.922 88.1919 20.922 87.9834 21.1312C87.7749 21.3405 87.5664 21.5497 87.3579 21.7589C87.1494 22.1773 87.1494 22.5958 86.9409 23.4327C86.7324 23.8511 86.7324 24.2695 86.7324 24.688C86.7324 24.8972 86.7324 25.3156 86.7324 25.3156C86.7324 25.5249 86.9409 25.5249 87.1494 25.7341C87.3579 25.7341 87.5664 25.7341 87.9834 25.7341C88.4003 25.7341 88.8173 25.7341 89.0258 25.7341C89.2343 25.7341 89.4428 25.5249 89.6513 25.5249C89.8598 25.3156 89.8598 25.1064 89.8598 24.8972L90.0683 24.688ZM79.2267 23.6419H80.8946C81.3116 23.6419 81.5201 23.6419 81.7286 23.6419C81.9371 23.6419 82.1456 23.4327 82.1456 23.2234C82.3541 23.0142 82.3541 22.805 82.3541 22.5958C82.3541 22.1773 82.3541 21.9681 82.3541 21.7589C82.3541 21.5497 82.1456 21.3405 82.1456 21.3405C81.9371 21.3405 81.7286 21.1312 81.5201 21.1312H79.8522L79.2267 23.6419ZM77.1418 27.1986L78.6012 20.0851H81.5201C81.9371 20.0851 82.3541 20.0851 82.5626 20.0851C82.7711 20.0851 83.188 20.2944 83.188 20.5036C83.3965 20.7128 83.3965 20.922 83.605 21.1312C83.605 21.3405 83.605 21.7589 83.605 22.3866C83.605 22.805 83.3965 23.2234 83.188 23.6419C82.9796 23.8511 82.7711 24.2695 82.5626 24.4788C82.3541 24.688 82.1456 24.688 81.7286 24.8972C81.3116 24.8972 80.8946 25.1064 80.4776 25.1064H78.8097L78.6012 27.1986H77.1418ZM73.3889 24.688L72.9719 21.1312L70.887 24.688H73.3889ZM73.3889 25.7341H70.2616L69.6361 27.1986H68.1766L71.9295 20.0851H74.0144L74.8484 27.1986H73.3889V25.7341ZM65.6747 24.688H66.9257V25.1064C66.7172 25.7341 66.7172 26.1525 66.3002 26.3617C66.0917 26.7802 65.6747 26.9894 65.2578 26.9894C64.8408 27.1986 64.2153 27.1986 63.3813 27.1986C62.7559 27.1986 62.3389 27.1986 61.9219 26.9894C61.5049 26.7802 61.2964 26.7802 61.0879 26.3617C60.8794 26.1525 60.8794 25.7341 60.8794 25.3156C60.8794 24.8972 60.8794 24.2695 61.0879 23.4327C61.2964 22.5958 61.5049 21.9681 61.7134 21.3405C61.9219 20.922 62.3389 20.5036 62.7559 20.2944C63.1728 20.0851 63.7983 19.8759 64.6323 19.8759C65.2578 19.8759 65.6747 19.8759 66.0917 20.0851C66.5087 20.0851 66.7172 20.2944 66.9257 20.5036C67.1342 20.7128 67.1342 20.922 67.1342 21.1312C67.1342 21.3405 67.1342 21.7589 67.1342 22.1773H65.8832C65.8832 21.7589 65.8832 21.5497 65.8832 21.3405C65.8832 21.1312 65.6747 21.1312 65.4662 20.922C65.2578 20.922 65.0493 20.922 64.4238 20.922C64.0068 20.922 63.5898 20.922 63.3813 21.1312C63.1728 21.3405 62.9643 21.5497 62.7559 21.7589C62.5474 22.1773 62.5474 22.5958 62.3389 23.4327C62.5474 24.0603 62.5474 24.4788 62.5474 24.8972C62.5474 25.1064 62.5474 25.5249 62.5474 25.5249C62.5474 25.7341 62.7559 25.7341 62.9643 25.9433C63.1728 25.9433 63.3813 25.9433 63.7983 25.9433C64.2153 25.9433 64.6323 25.9433 64.8408 25.9433C65.0493 25.9433 65.2578 25.7341 65.4662 25.7341C65.6747 25.5249 65.6747 25.3156 65.6747 25.1064V24.688ZM55.0417 20.0851L54.4162 23.0142H55.0417L57.9605 20.0851H59.6285L56.0841 23.4327L58.3775 27.1986H56.7096L54.8332 24.2695H54.2077L53.5822 27.1986H52.1228L53.5822 20.0851H55.0417ZM45.6595 23.6419C45.451 24.2695 45.451 24.688 45.451 24.8972C45.451 25.1064 45.451 25.5249 45.451 25.5249C45.451 25.7341 45.6595 25.7341 45.868 25.9433C46.0765 25.9433 46.285 25.9433 46.702 25.9433C47.119 25.9433 47.3275 25.9433 47.536 25.9433C47.7444 25.9433 47.9529 25.7341 48.1614 25.5249C48.3699 25.3156 48.3699 25.1064 48.5784 24.8972C48.7869 24.688 48.7869 24.0603 48.9954 23.6419C49.2039 23.0142 49.2039 22.5958 49.2039 22.1773C49.2039 21.7589 49.2039 21.5497 49.2039 21.5497C49.2039 21.3405 48.9954 21.3405 48.7869 21.3405C48.5784 21.3405 48.3699 21.3405 47.9529 21.3405C47.536 21.3405 47.3275 21.3405 47.119 21.3405C46.9105 21.3405 46.702 21.5497 46.4935 21.5497C46.285 21.7589 46.285 21.9681 46.0765 22.1773C45.868 22.5958 45.868 23.0142 45.6595 23.6419ZM44.4086 23.4327C44.6171 22.805 44.8256 22.1773 44.8256 21.7589C45.0341 21.3405 45.2425 20.922 45.451 20.7128C45.6595 20.5036 46.0765 20.2944 46.4935 20.0851C46.9105 19.8759 47.3275 19.8759 47.9529 19.8759C48.5784 19.8759 48.9954 19.8759 49.4124 20.0851C49.8294 20.2944 50.0379 20.2944 50.2463 20.7128C50.4548 20.922 50.4548 21.3405 50.4548 21.7589C50.4548 22.1773 50.4548 22.805 50.2463 23.4327C50.0379 24.2695 49.8294 24.8972 49.6209 25.3156C49.4124 25.7341 49.2039 26.1525 48.9954 26.3617C48.7869 26.571 48.3699 26.7802 47.9529 26.9894C47.536 26.9894 47.119 27.1986 46.4935 27.1986C45.868 27.1986 45.2425 27.1986 45.0341 26.9894C44.6171 26.9894 44.4086 26.7802 44.2001 26.3617C43.9916 26.1525 43.9916 25.7341 43.9916 25.3156C44.2001 24.8972 44.2001 24.2695 44.4086 23.4327ZM37.3199 25.9433H38.9878C39.4048 25.9433 39.8218 25.9433 40.0302 25.7341C40.2387 25.5249 40.4472 25.3156 40.4472 24.8972C40.4472 24.4788 40.4472 24.2695 40.2387 24.0603C40.0302 23.8511 39.8218 23.8511 39.4048 23.8511H37.7368L37.3199 25.9433ZM35.6519 27.1986L37.1114 20.0851H41.9067L41.6982 21.1312H38.1538L37.7368 22.805H40.0302C40.6557 22.805 41.0727 23.0142 41.4897 23.4327C41.6982 23.8511 41.9067 24.2695 41.6982 25.1064C41.6982 25.5249 41.4897 25.7341 41.2812 25.9433C41.0727 26.1525 40.8642 26.3617 40.8642 26.571C40.6557 26.7802 40.4472 26.9894 40.2387 26.9894C40.0302 26.9894 39.6133 27.1986 39.4048 27.1986H35.6519ZM30.8566 21.1312L30.4396 23.0142H33.7755L33.567 24.0603H30.2311L29.8142 25.9433H33.3585L33.15 27.1986H28.3547L29.8142 20.0851H34.6095L34.401 21.1312H30.8566ZM22.9339 20.0851H21.683L21.266 22.3866C21.0575 23.0142 21.0575 23.4327 21.266 23.6419C21.266 24.0603 21.4745 24.2695 21.8915 24.2695C22.3084 24.4788 22.7254 24.4788 23.3509 24.4788C24.1849 24.4788 24.8103 24.2695 25.2273 24.0603L24.3934 27.1986H25.6443L27.1038 20.0851H25.8528L25.2273 23.2234C25.0188 23.2234 25.0188 23.4327 24.8103 23.4327C24.6019 23.4327 24.3934 23.4327 24.1849 23.6419C23.9764 23.6419 23.7679 23.6419 23.3509 23.6419C23.1424 23.6419 22.9339 23.6419 22.7254 23.4327C22.5169 23.4327 22.5169 23.2234 22.5169 23.0142C22.5169 22.805 22.5169 22.5958 22.5169 22.3866L22.9339 20.0851Z" fill="#F9E8A2"/>
<path d="M160.123 32.6384C160.748 32.6384 161.165 32.6384 161.582 32.4292C161.999 32.2199 162.207 32.0107 162.207 31.3831H161.165C161.165 31.5923 161.165 31.5923 160.956 31.8015L160.748 32.0107C160.54 32.0107 160.54 32.0107 160.123 32.0107C159.914 32.0107 159.706 32.0107 159.706 32.0107C159.497 32.0107 159.497 32.0107 159.497 31.8015V31.5923L158.455 31.3831C158.455 31.8015 158.455 32.2199 158.663 32.4292C159.08 32.6384 159.497 32.6384 160.123 32.6384ZM163.25 33.0568H161.373L158.038 37.8689C157.829 38.0781 157.829 38.2873 157.621 38.2873C157.412 38.4965 157.412 38.7058 157.204 38.915C157.412 38.4965 157.412 38.0781 157.621 37.6597L158.663 33.0568H157.412L155.953 40.1703H157.829L161.165 35.3582C161.373 35.149 161.582 34.7306 161.999 34.1029C161.79 34.5214 161.79 34.9398 161.582 35.3582L160.54 39.9611H161.79L163.25 33.0568ZM151.991 34.1029L151.574 35.9859H154.91L154.702 37.032H151.366L150.949 38.915H154.493L154.285 39.9611H149.489L150.949 32.8476H155.744L155.536 33.8937L151.991 34.1029ZM149.698 33.0568L148.238 40.1703H146.988L148.238 34.3121H145.528L144.694 38.4965C144.694 38.915 144.486 39.1242 144.277 39.5426C144.069 39.7519 143.86 39.9611 143.652 40.1703C143.443 40.3795 143.026 40.3795 142.609 40.3795H141.984L142.192 39.3334H142.401C142.609 39.3334 142.818 39.3334 143.026 39.1242C143.235 38.915 143.235 38.915 143.235 38.7058L144.277 33.266L149.698 33.0568ZM142.609 33.0568H140.733L137.397 37.8689C137.188 38.0781 136.98 38.4965 136.563 38.915C136.771 38.4965 136.771 38.0781 136.98 37.6597L138.022 33.0568H136.771L135.312 40.1703H137.188L140.524 35.3582C140.733 35.149 140.941 34.7306 141.358 34.1029C141.15 34.5214 141.15 34.9398 140.941 35.3582L139.69 40.1703H141.15L142.609 33.0568ZM129.891 34.9398H129.057C128.64 34.9398 128.223 35.149 128.015 35.3582C127.806 35.5675 127.598 35.9859 127.389 36.6136C127.389 37.032 127.181 37.2412 127.389 37.6597C127.389 37.8689 127.598 38.0781 127.598 38.2873C127.806 38.4965 128.015 38.4965 128.223 38.4965H129.057L129.891 34.9398ZM128.849 39.3334H128.223C127.806 39.3334 127.389 39.3334 126.972 39.1242C126.555 38.915 126.347 38.915 126.138 38.7058C125.93 38.4965 125.93 38.2873 125.721 37.8689C125.721 37.4504 125.721 37.032 125.721 36.6136C125.93 35.9859 126.138 35.3582 126.347 34.9398C126.555 34.5214 126.972 34.3121 127.389 34.1029C127.806 33.8937 128.432 33.8937 129.057 33.8937H129.683L129.891 33.266H131.142L131.351 33.6845H131.976C132.602 33.6845 133.019 33.6845 133.436 33.8937C133.853 34.1029 134.061 34.3121 134.061 34.7306C134.27 35.149 134.061 35.7767 134.061 36.4043C133.853 36.8228 133.853 37.2412 133.644 37.6597C133.436 38.0781 133.227 38.2873 133.019 38.4965C132.81 38.7058 132.393 38.915 131.976 38.915C131.559 39.1242 131.142 39.1242 130.725 39.1242H130.1L129.891 39.9611H128.64L128.849 39.3334ZM131.142 34.9398L130.517 38.2873H131.351C131.768 38.2873 131.976 38.2873 132.185 38.0781C132.393 37.8689 132.602 37.8689 132.602 37.4504C132.81 37.2412 132.81 36.8228 133.019 36.4043C133.227 35.7767 133.227 35.3582 133.019 35.149C132.81 34.9398 132.602 34.7306 132.185 34.7306L131.142 34.9398ZM120.301 36.6136C120.092 37.2412 120.092 37.6597 120.092 37.8689C120.092 38.0781 120.092 38.4965 120.092 38.4965C120.092 38.7058 120.301 38.7058 120.509 38.7058C120.718 38.7058 120.926 38.7058 121.343 38.7058C121.76 38.7058 121.969 38.7058 122.177 38.7058C122.386 38.7058 122.594 38.4965 122.803 38.2873C123.011 38.0781 123.011 37.8689 123.219 37.6597C123.428 37.4504 123.428 36.8228 123.636 36.4043C123.845 35.7767 123.845 35.3582 123.845 34.9398C123.845 34.5214 123.845 34.3121 123.845 34.3121C123.845 34.1029 123.636 34.1029 123.428 34.1029C123.219 34.1029 123.011 34.1029 122.594 34.1029C122.177 34.1029 121.969 34.1029 121.76 34.1029C121.552 34.1029 121.343 34.3121 121.135 34.3121C120.926 34.5214 120.926 34.7306 120.718 34.9398C120.509 35.5675 120.301 35.9859 120.301 36.6136ZM118.841 36.4043C119.05 35.7767 119.258 35.149 119.258 34.7306C119.467 34.3121 119.675 33.8937 119.884 33.6845C120.092 33.4753 120.509 33.266 120.926 33.0568C121.343 32.8476 121.76 32.8476 122.386 32.8476C123.011 32.8476 123.428 32.8476 123.845 33.0568C124.262 33.266 124.47 33.266 124.679 33.6845C124.887 33.8937 124.887 34.3121 124.887 34.7306C124.887 35.149 124.887 35.7767 124.679 36.4043C124.47 37.2412 124.262 37.8689 124.053 38.2873C123.845 38.7058 123.636 39.1242 123.428 39.3334C123.219 39.5426 122.803 39.7519 122.386 39.9611C121.969 39.9611 121.552 40.1703 120.926 40.1703C120.301 40.1703 119.675 40.1703 119.467 39.9611C119.05 39.9611 118.841 39.7519 118.633 39.3334C118.424 39.1242 118.424 38.7058 118.424 38.2873C118.633 37.8689 118.841 37.2412 118.841 36.4043ZM113.837 36.6136H115.505C115.922 36.6136 116.131 36.6136 116.339 36.6136C116.548 36.6136 116.756 36.4043 116.756 36.1951C116.965 35.9859 116.965 35.7767 116.965 35.5675C116.965 35.149 116.965 34.9398 116.965 34.7306C116.965 34.5214 116.756 34.5214 116.756 34.3121C116.548 34.3121 116.339 34.1029 116.131 34.1029H114.463L113.837 36.6136ZM111.752 40.1703L113.212 33.0568H116.131C116.548 33.0568 116.965 33.0568 117.173 33.0568C117.382 33.0568 117.799 33.266 117.799 33.4753C118.007 33.6845 118.007 33.8937 118.216 34.1029C118.216 34.3121 118.216 34.7306 118.216 35.3582C118.216 35.7767 118.007 36.1951 117.799 36.6136C117.59 36.8228 117.382 37.2412 117.173 37.4504C117.173 37.4504 116.756 37.6597 116.548 37.6597C116.131 37.6597 115.714 37.8689 115.297 37.8689H113.629L113.212 40.1703H111.752ZM111.961 33.0568L110.501 40.1703H109.251L110.501 34.3121H107.166L105.915 40.1703H104.664L106.123 33.0568H111.961ZM100.285 33.0568L97.575 36.4043L99.0344 39.9611H97.575L96.5325 37.032L93.8222 40.1703H92.1542L95.2816 36.6136L93.8222 33.0568H95.4901L96.5325 35.7767L98.826 33.0568H100.285ZM93.1967 33.0568L91.7372 40.1703H90.4863L91.9457 33.0568H93.1967ZM85.0655 38.915H86.7334C87.1504 38.915 87.5674 38.915 87.7759 38.7058C87.9844 38.4965 88.1929 38.2873 88.1929 37.8689C88.1929 37.4504 88.1929 37.2412 87.9844 37.032C87.7759 36.8228 87.5674 36.8228 87.1504 36.8228H85.4825L85.0655 38.915ZM83.606 40.1703L85.0655 33.0568H86.3164L85.691 35.7767H87.9844C88.6099 35.7767 89.0268 35.9859 89.4438 36.4043C89.6523 36.8228 89.8608 37.2412 89.6523 38.0781C89.6523 38.4965 89.4438 38.915 89.2353 39.3334C89.0268 39.7519 88.8184 39.9611 88.4014 39.9611C87.9844 40.1703 87.7759 40.1703 87.3589 40.1703H83.606ZM83.8145 33.0568L82.3551 40.1703H81.1042L81.7296 37.2412H78.3938L77.7683 40.1703H76.5173L77.9768 33.0568H79.2277L78.6023 35.9859H81.9381L82.5636 33.0568H83.8145ZM71.305 39.1242H72.973C73.1815 39.1242 73.5984 39.1242 73.5984 39.1242C73.8069 39.1242 74.0154 38.915 74.0154 38.915C74.2239 38.7058 74.2239 38.4965 74.2239 38.2873C74.2239 37.8689 74.2239 37.6597 74.0154 37.4504C73.8069 37.2412 73.5984 37.2412 73.1815 37.2412H71.5135L71.305 39.1242ZM69.8456 40.1703L71.305 33.0568H72.556L71.9305 35.7767H74.2239C74.8494 35.7767 75.2664 35.9859 75.6834 36.4043C75.8919 36.8228 76.1004 37.2412 75.8919 38.0781C75.8919 38.4965 75.6834 38.915 75.4749 39.3334C75.2664 39.7519 75.0579 39.9611 74.6409 39.9611C74.2239 40.1703 74.0154 40.1703 73.5984 40.1703H69.8456ZM70.0541 33.0568L68.5947 40.1703H67.3437L68.5947 34.3121H65.8843L65.0503 38.4965C65.0503 38.915 64.8418 39.1242 64.6333 39.5426C64.4248 39.7519 64.2163 39.9611 64.0078 40.1703C63.7993 40.3795 63.3824 40.3795 62.9654 40.3795H62.3399L62.5484 39.3334H62.7569C62.9654 39.3334 63.1739 39.3334 63.3824 39.1242C63.5908 38.915 63.5908 38.915 63.5908 38.7058L64.6333 33.266L70.0541 33.0568ZM59.2125 34.3121L58.7955 36.1951H62.1314L61.9229 37.2412H58.587L58.1701 39.1242H61.7144L61.5059 40.1703H56.7106L58.1701 33.0568H62.9654L62.7569 34.1029L59.2125 34.3121ZM52.5408 40.1703L53.7917 34.3121H51.7068L51.9153 33.0568H57.3361L57.1276 34.3121H55.0427L53.7917 40.1703H52.5408ZM51.0813 33.0568H49.2049L45.869 37.8689C45.6606 38.0781 45.4521 38.4965 45.0351 38.915C45.2436 38.4965 45.2436 38.0781 45.4521 37.6597L46.4945 33.0568H45.2436L43.7841 40.1703H45.6606L48.9964 35.3582C49.2049 35.149 49.4134 34.7306 49.8304 34.1029C49.6219 34.5214 49.6219 34.9398 49.4134 35.3582L48.3709 39.9611H49.8304L51.0813 33.0568ZM38.1548 36.6136C37.9464 37.2412 37.9464 37.6597 37.9464 37.8689C37.9464 38.0781 37.9464 38.4965 37.9464 38.4965C37.9464 38.7058 38.1548 38.7058 38.3633 38.7058C38.5718 38.7058 38.7803 38.7058 39.1973 38.7058C39.6143 38.7058 39.8228 38.7058 40.0313 38.7058C40.2398 38.7058 40.4483 38.4965 40.6567 38.2873C40.8652 38.0781 40.8652 37.8689 41.0737 37.6597C41.2822 37.4504 41.2822 36.8228 41.4907 36.4043C41.6992 35.9859 41.6992 35.5675 41.6992 35.3582C41.6992 34.9398 41.6992 34.7306 41.6992 34.7306C41.6992 34.5214 41.4907 34.5214 41.2822 34.5214C41.0737 34.5214 40.8652 34.5214 40.4483 34.5214C40.0313 34.5214 39.8228 34.5214 39.6143 34.5214C39.4058 34.5214 39.1973 34.7306 38.9888 34.7306C38.7803 34.9398 38.7803 35.149 38.5718 35.3582C38.5718 35.5675 38.3633 35.9859 38.1548 36.6136ZM36.9039 36.4043C37.1124 35.7767 37.3209 35.149 37.3209 34.7306C37.5294 34.3121 37.7379 33.8937 37.9464 33.6845C38.1548 33.4753 38.5718 33.266 38.9888 33.0568C39.4058 32.8476 39.8228 32.8476 40.4483 32.8476C41.0737 32.8476 41.4907 32.8476 41.9077 33.0568C42.3247 33.266 42.5332 33.266 42.7417 33.6845C42.9502 33.8937 42.9502 34.3121 42.9502 34.7306C42.9502 35.149 42.9502 35.7767 42.7417 36.4043C42.5332 37.2412 42.3247 37.8689 42.1162 38.2873C41.9077 38.7058 41.6992 39.1242 41.4907 39.3334C41.2822 39.5426 40.8652 39.7519 40.4483 39.9611C40.0313 39.9611 39.6143 40.1703 38.9888 40.1703C38.3633 40.1703 37.7379 40.1703 37.5294 39.9611C37.1124 39.9611 36.9039 39.7519 36.6954 39.3334C36.4869 39.1242 36.4869 38.7058 36.4869 38.2873C36.6954 37.8689 36.6954 37.2412 36.9039 36.4043ZM31.6916 36.8228H33.3595C33.7765 36.8228 33.985 36.8228 34.1935 36.8228C34.402 36.8228 34.6105 36.6136 34.6105 36.4043C34.819 36.1951 34.819 35.9859 34.819 35.7767C34.819 35.3582 34.819 35.149 34.819 34.9398C34.819 34.7306 34.6105 34.7306 34.6105 34.5214C34.402 34.5214 34.1935 34.3121 33.985 34.3121H32.3171L31.6916 36.8228ZM29.6067 40.1703L31.0661 33.0568H33.985C34.402 33.0568 34.819 33.0568 35.0275 33.0568C35.236 33.0568 35.6529 33.266 35.6529 33.4753C35.8614 33.6845 35.8614 33.8937 36.0699 34.1029C36.0699 34.3121 36.0699 34.7306 36.0699 35.3582C36.0699 35.7767 35.8614 36.1951 35.6529 36.6136C35.4445 36.8228 35.236 37.2412 35.0275 37.4504C34.819 37.6597 34.6105 37.6597 34.1935 37.8689C33.7765 37.8689 33.3595 38.0781 32.9426 38.0781H31.2746L30.8576 40.3795L29.6067 40.1703ZM25.4368 40.1703L26.6878 34.3121H24.6029L24.8114 33.0568H30.2322L30.0237 34.3121H27.9387L26.6878 40.1703H25.4368ZM22.101 37.6597H23.3519V38.0781C23.1434 38.7058 23.1434 39.1242 22.7265 39.3334C22.518 39.7519 22.101 39.9611 21.684 39.9611C21.267 40.1703 20.6415 40.1703 20.0161 40.1703C19.3906 40.1703 18.9736 40.1703 18.5566 39.9611C18.1396 39.7519 17.9311 39.7519 17.7227 39.3334C17.5142 39.1242 17.5142 38.7058 17.5142 38.2873C17.5142 37.8689 17.5142 37.2412 17.7227 36.4043C17.9311 35.5675 18.1396 34.9398 18.3481 34.3121C18.7651 34.1029 19.1821 33.6845 19.5991 33.4753C20.0161 33.266 20.6415 33.0568 21.4755 33.0568C22.101 33.0568 22.518 33.0568 22.9349 33.266C23.3519 33.266 23.5604 33.4753 23.7689 33.6845C23.9774 33.8937 23.9774 34.1029 23.9774 34.3121C23.9774 34.5214 23.9774 34.9398 23.9774 35.3582H22.7265C22.7265 34.9398 22.7265 34.7306 22.7265 34.5214C22.7265 34.3121 22.518 34.3121 22.3095 34.1029C22.101 34.1029 21.8925 34.1029 21.267 34.1029C20.85 34.1029 20.433 34.1029 20.2246 34.3121C20.0161 34.5214 19.8076 34.7306 19.5991 34.9398C19.3906 35.3582 19.3906 35.7767 19.1821 36.6136C18.9736 37.032 18.9736 37.4504 18.9736 37.8689C18.9736 38.0781 18.9736 38.4965 18.9736 38.4965C18.9736 38.7058 19.1821 38.7058 19.3906 38.915C19.5991 38.915 19.8076 38.915 20.2246 38.915C20.6415 38.915 21.0585 38.915 21.267 38.915C21.4755 38.915 21.684 38.7058 21.8925 38.7058C22.101 38.4965 22.101 38.2873 22.101 38.0781V37.6597Z" fill="white"/>
<path d="M160.123 32.6384C160.748 32.6384 161.165 32.6384 161.582 32.4292C161.999 32.2199 162.207 32.0107 162.207 31.3831H161.165C161.165 31.5923 161.165 31.5923 160.956 31.8015L160.748 32.0107C160.54 32.0107 160.54 32.0107 160.123 32.0107C159.914 32.0107 159.706 32.0107 159.706 32.0107C159.497 32.0107 159.497 32.0107 159.497 31.8015V31.5923L158.455 31.3831C158.455 31.8015 158.455 32.2199 158.663 32.4292C159.08 32.6384 159.497 32.6384 160.123 32.6384ZM163.25 33.0568H161.373L158.038 37.8689C157.829 38.0781 157.829 38.2873 157.621 38.2873C157.412 38.4965 157.412 38.7058 157.204 38.915C157.412 38.4965 157.412 38.0781 157.621 37.6597L158.663 33.0568H157.412L155.953 40.1703H157.829L161.165 35.3582C161.373 35.149 161.582 34.7306 161.999 34.1029C161.79 34.5214 161.79 34.9398 161.582 35.3582L160.54 39.9611H161.79L163.25 33.0568ZM151.991 34.1029L151.574 35.9859H154.91L154.702 37.032H151.366L150.949 38.915H154.493L154.285 39.9611H149.489L150.949 32.8476H155.744L155.536 33.8937L151.991 34.1029ZM149.698 33.0568L148.238 40.1703H146.988L148.238 34.3121H145.528L144.694 38.4965C144.694 38.915 144.486 39.1242 144.277 39.5426C144.069 39.7519 143.86 39.9611 143.652 40.1703C143.443 40.3795 143.026 40.3795 142.609 40.3795H141.984L142.192 39.3334H142.401C142.609 39.3334 142.818 39.3334 143.026 39.1242C143.235 38.915 143.235 38.915 143.235 38.7058L144.277 33.266L149.698 33.0568ZM142.609 33.0568H140.733L137.397 37.8689C137.188 38.0781 136.98 38.4965 136.563 38.915C136.771 38.4965 136.771 38.0781 136.98 37.6597L138.022 33.0568H136.771L135.312 40.1703H137.188L140.524 35.3582C140.733 35.149 140.941 34.7306 141.358 34.1029C141.15 34.5214 141.15 34.9398 140.941 35.3582L139.69 40.1703H141.15L142.609 33.0568ZM129.891 34.9398H129.057C128.64 34.9398 128.223 35.149 128.015 35.3582C127.806 35.5675 127.598 35.9859 127.389 36.6136C127.389 37.032 127.181 37.2412 127.389 37.6597C127.389 37.8689 127.598 38.0781 127.598 38.2873C127.806 38.4965 128.015 38.4965 128.223 38.4965H129.057L129.891 34.9398ZM128.849 39.3334H128.223C127.806 39.3334 127.389 39.3334 126.972 39.1242C126.555 38.915 126.347 38.915 126.138 38.7058C125.93 38.4965 125.93 38.2873 125.721 37.8689C125.721 37.4504 125.721 37.032 125.721 36.6136C125.93 35.9859 126.138 35.3582 126.347 34.9398C126.555 34.5214 126.972 34.3121 127.389 34.1029C127.806 33.8937 128.432 33.8937 129.057 33.8937H129.683L129.891 33.266H131.142L131.351 33.6845H131.976C132.602 33.6845 133.019 33.6845 133.436 33.8937C133.853 34.1029 134.061 34.3121 134.061 34.7306C134.27 35.149 134.061 35.7767 134.061 36.4043C133.853 36.8228 133.853 37.2412 133.644 37.6597C133.436 38.0781 133.227 38.2873 133.019 38.4965C132.81 38.7058 132.393 38.915 131.976 38.915C131.559 39.1242 131.142 39.1242 130.725 39.1242H130.1L129.891 39.9611H128.64L128.849 39.3334ZM131.142 34.9398L130.517 38.2873H131.351C131.768 38.2873 131.976 38.2873 132.185 38.0781C132.393 37.8689 132.602 37.8689 132.602 37.4504C132.81 37.2412 132.81 36.8228 133.019 36.4043C133.227 35.7767 133.227 35.3582 133.019 35.149C132.81 34.9398 132.602 34.7306 132.185 34.7306L131.142 34.9398ZM120.301 36.6136C120.092 37.2412 120.092 37.6597 120.092 37.8689C120.092 38.0781 120.092 38.4965 120.092 38.4965C120.092 38.7058 120.301 38.7058 120.509 38.7058C120.718 38.7058 120.926 38.7058 121.343 38.7058C121.76 38.7058 121.969 38.7058 122.177 38.7058C122.386 38.7058 122.594 38.4965 122.803 38.2873C123.011 38.0781 123.011 37.8689 123.219 37.6597C123.428 37.4504 123.428 36.8228 123.636 36.4043C123.845 35.7767 123.845 35.3582 123.845 34.9398C123.845 34.5214 123.845 34.3121 123.845 34.3121C123.845 34.1029 123.636 34.1029 123.428 34.1029C123.219 34.1029 123.011 34.1029 122.594 34.1029C122.177 34.1029 121.969 34.1029 121.76 34.1029C121.552 34.1029 121.343 34.3121 121.135 34.3121C120.926 34.5214 120.926 34.7306 120.718 34.9398C120.509 35.5675 120.301 35.9859 120.301 36.6136ZM118.841 36.4043C119.05 35.7767 119.258 35.149 119.258 34.7306C119.467 34.3121 119.675 33.8937 119.884 33.6845C120.092 33.4753 120.509 33.266 120.926 33.0568C121.343 32.8476 121.76 32.8476 122.386 32.8476C123.011 32.8476 123.428 32.8476 123.845 33.0568C124.262 33.266 124.47 33.266 124.679 33.6845C124.887 33.8937 124.887 34.3121 124.887 34.7306C124.887 35.149 124.887 35.7767 124.679 36.4043C124.47 37.2412 124.262 37.8689 124.053 38.2873C123.845 38.7058 123.636 39.1242 123.428 39.3334C123.219 39.5426 122.803 39.7519 122.386 39.9611C121.969 39.9611 121.552 40.1703 120.926 40.1703C120.301 40.1703 119.675 40.1703 119.467 39.9611C119.05 39.9611 118.841 39.7519 118.633 39.3334C118.424 39.1242 118.424 38.7058 118.424 38.2873C118.633 37.8689 118.841 37.2412 118.841 36.4043ZM113.837 36.6136H115.505C115.922 36.6136 116.131 36.6136 116.339 36.6136C116.548 36.6136 116.756 36.4043 116.756 36.1951C116.965 35.9859 116.965 35.7767 116.965 35.5675C116.965 35.149 116.965 34.9398 116.965 34.7306C116.965 34.5214 116.756 34.5214 116.756 34.3121C116.548 34.3121 116.339 34.1029 116.131 34.1029H114.463L113.837 36.6136ZM111.752 40.1703L113.212 33.0568H116.131C116.548 33.0568 116.965 33.0568 117.173 33.0568C117.382 33.0568 117.799 33.266 117.799 33.4753C118.007 33.6845 118.007 33.8937 118.216 34.1029C118.216 34.3121 118.216 34.7306 118.216 35.3582C118.216 35.7767 118.007 36.1951 117.799 36.6136C117.59 36.8228 117.382 37.2412 117.173 37.4504C117.173 37.4504 116.756 37.6597 116.548 37.6597C116.131 37.6597 115.714 37.8689 115.297 37.8689H113.629L113.212 40.1703H111.752ZM111.961 33.0568L110.501 40.1703H109.251L110.501 34.3121H107.166L105.915 40.1703H104.664L106.123 33.0568H111.961ZM100.285 33.0568L97.575 36.4043L99.0344 39.9611H97.575L96.5325 37.032L93.8221 40.1703H92.1542L95.2816 36.6136L93.8221 33.0568H95.4901L96.5325 35.7767L98.826 33.0568H100.285ZM93.1967 33.0568L91.7372 40.1703H90.4863L91.9457 33.0568H93.1967ZM85.0655 38.915H86.7334C87.1504 38.915 87.5674 38.915 87.7759 38.7058C87.9844 38.4965 88.1929 38.2873 88.1929 37.8689C88.1929 37.4504 88.1929 37.2412 87.9844 37.032C87.7759 36.8228 87.5674 36.8228 87.1504 36.8228H85.4825L85.0655 38.915ZM83.6061 40.1703L85.0655 33.0568H86.3164L85.691 35.7767H87.9844C88.6099 35.7767 89.0268 35.9859 89.4438 36.4043C89.6523 36.8228 89.8608 37.2412 89.6523 38.0781C89.6523 38.4965 89.4438 38.915 89.2353 39.3334C89.0268 39.7519 88.8183 39.9611 88.4014 39.9611C87.9844 40.1703 87.7759 40.1703 87.3589 40.1703H83.6061ZM83.8145 33.0568L82.3551 40.1703H81.1042L81.7296 37.2412H78.3938L77.7683 40.1703H76.5173L77.9768 33.0568H79.2277L78.6023 35.9859H81.9381L82.5636 33.0568H83.8145ZM71.305 39.1242H72.973C73.1815 39.1242 73.5984 39.1242 73.5984 39.1242C73.8069 39.1242 74.0154 38.915 74.0154 38.915C74.2239 38.7058 74.2239 38.4965 74.2239 38.2873C74.2239 37.8689 74.2239 37.6597 74.0154 37.4504C73.8069 37.2412 73.5984 37.2412 73.1815 37.2412H71.5135L71.305 39.1242ZM69.8456 40.1703L71.305 33.0568H72.556L71.9305 35.7767H74.2239C74.8494 35.7767 75.2664 35.9859 75.6834 36.4043C75.8919 36.8228 76.1004 37.2412 75.8919 38.0781C75.8919 38.4965 75.6834 38.915 75.4749 39.3334C75.2664 39.7519 75.0579 39.9611 74.6409 39.9611C74.2239 40.1703 74.0154 40.1703 73.5984 40.1703H69.8456ZM70.0541 33.0568L68.5946 40.1703H67.3437L68.5946 34.3121H65.8843L65.0503 38.4965C65.0503 38.915 64.8418 39.1242 64.6333 39.5426C64.4248 39.7519 64.2163 39.9611 64.0078 40.1703C63.7993 40.3795 63.3824 40.3795 62.9654 40.3795H62.3399L62.5484 39.3334H62.7569C62.9654 39.3334 63.1739 39.3334 63.3824 39.1242C63.5908 38.915 63.5908 38.915 63.5908 38.7058L64.6333 33.266L70.0541 33.0568ZM59.2125 34.3121L58.7955 36.1951H62.1314L61.9229 37.2412H58.587L58.1701 39.1242H61.7144L61.5059 40.1703H56.7106L58.1701 33.0568H62.9654L62.7569 34.1029L59.2125 34.3121ZM52.5408 40.1703L53.7917 34.3121H51.7068L51.9153 33.0568H57.3361L57.1276 34.3121H55.0427L53.7917 40.1703H52.5408ZM51.0813 33.0568H49.2049L45.869 37.8689C45.6606 38.0781 45.4521 38.4965 45.0351 38.915C45.2436 38.4965 45.2436 38.0781 45.4521 37.6597L46.4945 33.0568H45.2436L43.7841 40.1703H45.6606L48.9964 35.3582C49.2049 35.149 49.4134 34.7306 49.8304 34.1029C49.6219 34.5214 49.6219 34.9398 49.4134 35.3582L48.3709 39.9611H49.8304L51.0813 33.0568ZM38.1548 36.6136C37.9464 37.2412 37.9464 37.6597 37.9464 37.8689C37.9464 38.0781 37.9464 38.4965 37.9464 38.4965C37.9464 38.7058 38.1548 38.7058 38.3633 38.7058C38.5718 38.7058 38.7803 38.7058 39.1973 38.7058C39.6143 38.7058 39.8228 38.7058 40.0313 38.7058C40.2398 38.7058 40.4483 38.4965 40.6567 38.2873C40.8652 38.0781 40.8652 37.8689 41.0737 37.6597C41.2822 37.4504 41.2822 36.8228 41.4907 36.4043C41.6992 35.9859 41.6992 35.5675 41.6992 35.3582C41.6992 34.9398 41.6992 34.7306 41.6992 34.7306C41.6992 34.5214 41.4907 34.5214 41.2822 34.5214C41.0737 34.5214 40.8652 34.5214 40.4483 34.5214C40.0313 34.5214 39.8228 34.5214 39.6143 34.5214C39.4058 34.5214 39.1973 34.7306 38.9888 34.7306C38.7803 34.9398 38.7803 35.149 38.5718 35.3582C38.5718 35.5675 38.3633 35.9859 38.1548 36.6136ZM36.9039 36.4043C37.1124 35.7767 37.3209 35.149 37.3209 34.7306C37.5294 34.3121 37.7379 33.8937 37.9464 33.6845C38.1548 33.4753 38.5718 33.266 38.9888 33.0568C39.4058 32.8476 39.8228 32.8476 40.4483 32.8476C41.0737 32.8476 41.4907 32.8476 41.9077 33.0568C42.3247 33.266 42.5332 33.266 42.7417 33.6845C42.9502 33.8937 42.9502 34.3121 42.9502 34.7306C42.9502 35.149 42.9502 35.7767 42.7417 36.4043C42.5332 37.2412 42.3247 37.8689 42.1162 38.2873C41.9077 38.7058 41.6992 39.1242 41.4907 39.3334C41.2822 39.5426 40.8652 39.7519 40.4483 39.9611C40.0313 39.9611 39.6143 40.1703 38.9888 40.1703C38.3633 40.1703 37.7379 40.1703 37.5294 39.9611C37.1124 39.9611 36.9039 39.7519 36.6954 39.3334C36.4869 39.1242 36.4869 38.7058 36.4869 38.2873C36.6954 37.8689 36.6954 37.2412 36.9039 36.4043ZM31.6916 36.8228H33.3595C33.7765 36.8228 33.985 36.8228 34.1935 36.8228C34.402 36.8228 34.6105 36.6136 34.6105 36.4043C34.819 36.1951 34.819 35.9859 34.819 35.7767C34.819 35.3582 34.819 35.149 34.819 34.9398C34.819 34.7306 34.6105 34.7306 34.6105 34.5214C34.402 34.5214 34.1935 34.3121 33.985 34.3121H32.3171L31.6916 36.8228ZM29.6067 40.1703L31.0661 33.0568H33.985C34.402 33.0568 34.819 33.0568 35.0275 33.0568C35.236 33.0568 35.6529 33.266 35.6529 33.4753C35.8614 33.6845 35.8614 33.8937 36.0699 34.1029C36.0699 34.3121 36.0699 34.7306 36.0699 35.3582C36.0699 35.7767 35.8614 36.1951 35.6529 36.6136C35.4445 36.8228 35.236 37.2412 35.0275 37.4504C34.819 37.6597 34.6105 37.6597 34.1935 37.8689C33.7765 37.8689 33.3595 38.0781 32.9426 38.0781H31.2746L30.8576 40.3795L29.6067 40.1703ZM25.4368 40.1703L26.6878 34.3121H24.6029L24.8114 33.0568H30.2322L30.0237 34.3121H27.9387L26.6878 40.1703H25.4368ZM22.101 37.6597H23.3519V38.0781C23.1434 38.7058 23.1434 39.1242 22.7265 39.3334C22.518 39.7519 22.101 39.9611 21.684 39.9611C21.267 40.1703 20.6415 40.1703 20.0161 40.1703C19.3906 40.1703 18.9736 40.1703 18.5566 39.9611C18.1396 39.7519 17.9311 39.7519 17.7227 39.3334C17.5142 39.1242 17.5142 38.7058 17.5142 38.2873C17.5142 37.8689 17.5142 37.2412 17.7227 36.4043C17.9311 35.5675 18.1396 34.9398 18.3481 34.3121C18.7651 34.1029 19.1821 33.6845 19.5991 33.4753C20.0161 33.266 20.6415 33.0568 21.4755 33.0568C22.101 33.0568 22.518 33.0568 22.9349 33.266C23.3519 33.266 23.5604 33.4753 23.7689 33.6845C23.9774 33.8937 23.9774 34.1029 23.9774 34.3121C23.9774 34.5214 23.9774 34.9398 23.9774 35.3582H22.7265C22.7265 34.9398 22.7265 34.7306 22.7265 34.5214C22.7265 34.3121 22.518 34.3121 22.3095 34.1029C22.101 34.1029 21.8925 34.1029 21.267 34.1029C20.85 34.1029 20.433 34.1029 20.2246 34.3121C20.0161 34.5214 19.8076 34.7306 19.5991 34.9398C19.3906 35.3582 19.3906 35.7767 19.1821 36.6136C18.9736 37.032 18.9736 37.4504 18.9736 37.8689C18.9736 38.0781 18.9736 38.4965 18.9736 38.4965C18.9736 38.7058 19.1821 38.7058 19.3906 38.915C19.5991 38.915 19.8076 38.915 20.2246 38.915C20.6415 38.915 21.0585 38.915 21.267 38.915C21.4755 38.915 21.684 38.7058 21.8925 38.7058C22.101 38.4965 22.101 38.2873 22.101 38.0781V37.6597Z" fill="#F9E8A2"/>
<path fill-rule="evenodd" clip-rule="evenodd" d="M262.492 46.656V46.8652V47.0744H262.283V47.2836V47.4929H262.075V47.7021V47.9113L261.866 48.1205V48.3297H261.658V48.539V48.7482H261.449V48.9574H261.241V49.1666V49.3758H261.032V49.5851H260.824V49.7943H260.615V50.0035H260.407V50.2127H260.198V50.4219H259.99V50.6312H259.781V50.8404H259.573H259.364V51.0496H259.156L258.947 51.2588H258.739L258.53 51.468H258.322V51.6773H258.113H257.905L257.696 51.8865H257.488H257.279H257.071H256.862L256.654 52.0957H256.445H256.237H256.028H255.82H255.611H255.403H255.194H254.986V51.8865H254.777H254.569H254.36H254.152V51.6773H253.943H253.735H253.526V51.468H253.318H253.109V51.2588H252.901V51.0496H252.692L252.484 50.8404L252.275 50.6312V50.4219L252.067 50.2127L251.858 50.0035V49.7943L251.65 49.5851L251.441 48.7482H253.318V48.9574V49.1666H253.526V49.3758V49.5851H253.735V49.7943H253.943V50.0035H254.152V50.2127H254.36L254.569 50.4219H254.777H254.986L255.194 50.6312H255.403H255.611H255.82H256.028H256.237H256.445H256.654H256.862L257.071 50.4219H257.279H257.488H257.696L257.905 50.2127H258.113H258.322V50.0035H258.53H258.739V49.7943H258.947V49.5851H259.156V49.3758H259.364V49.1666H259.573V48.9574H259.781V48.7482H259.99V48.539L260.198 48.3297L260.407 48.1205V47.9113L260.615 47.7021V47.4929H254.36L254.777 46.0283H262.7L262.492 46.4468V46.656Z" fill="#F9E8A2"/>
<path fill-rule="evenodd" clip-rule="evenodd" d="M253.944 41.6347L254.152 41.4255H254.361L254.569 41.2163L254.778 41.007H254.986V40.7978H255.195L255.403 40.5886H255.611V40.3794H255.82H256.028L256.237 40.1702H256.445H256.654L256.862 39.9609H257.071H257.279H257.488H257.696H257.905H258.113H258.322H258.53H258.739H258.947H259.156H259.364H259.573H259.781L259.99 40.1702H260.198H260.407V40.3794H260.615H260.824V40.5886H261.032L261.241 40.7978H261.449V41.007L261.658 41.2163H261.866V41.4255L262.075 41.6347V41.8439H262.283V42.0531L262.492 42.2624V42.4716V42.6808L262.7 42.89V43.0992V43.3085V43.5177L262.909 43.7269V43.9361V44.1453V44.3546V44.5638V44.773V44.9822L262.7 45.6099H254.778L255.195 44.1453H261.241V43.9361V43.7269V43.5177V43.3085H261.032V43.0992V42.89H260.824V42.6808V42.4716H260.615V42.2624H260.407V42.0531H260.198V41.8439H259.99L259.781 41.6347H259.573H259.364V41.4255H259.156H258.947H258.739H258.53H258.322H258.113H257.905H257.696H257.488H257.279H257.071H256.862H256.654V41.6347H256.445H256.237H256.028V41.8439H255.82L255.611 42.0531H255.403V42.2624H255.195V42.4716H254.986V42.6808H254.778V42.89H254.569V43.0992L254.361 43.3085H252.484L253.11 42.4716H253.318L253.527 42.2624V42.0531L253.735 41.8439H253.944V41.6347Z" fill="#F9E8A2"/>
<path fill-rule="evenodd" clip-rule="evenodd" d="M250.815 48.7483L251.024 49.1668V49.376V49.5852V49.7944H251.232V50.0036L251.441 50.2129V50.4221L251.649 50.6313V50.8405H251.858V51.0497H252.066V51.259H252.275V51.4682H252.483L252.692 51.6774H252.9V51.8866H253.109L253.317 52.0958H253.526H253.734V52.3051H253.943H254.151H254.36V52.5143H254.568H254.777H254.985H255.194H255.402H255.611H255.819H256.028H256.236H256.445H256.653H256.862H257.07V52.3051H257.279H257.487H257.696H257.904L258.113 52.0958H258.321H258.53V51.8866H258.738H258.947L259.155 51.6774H259.364V51.4682H259.572H259.781V51.259H259.989V51.0497H260.198H260.406V50.8405H260.615V50.6313H260.823V50.4221H261.032V50.2129H261.24V50.0036H261.448V49.7944H261.657V49.5852L261.865 49.376V49.1668H262.074V48.9575L262.282 48.7483V48.5391H262.491V48.3299L262.699 48.1207V47.9114V47.7022H262.908V47.493V47.2838L263.116 47.0746V46.8653V46.6561L263.325 46.4469V46.2377V46.0285V45.8192V45.61H263.533V45.4008V45.1916V44.9824V44.7731V44.5639V44.3547V44.1455V43.9363V43.727V43.5178V43.3086H263.325V43.0994V42.8902V42.6809V42.4717H263.116V42.2625V42.0533H262.908V41.8441V41.6348H262.699V41.4256L262.491 41.2164V41.0072H262.282V40.798H262.074V40.5888H261.865V40.3795H261.657L261.448 40.1703L261.24 39.9611H261.032H260.823V39.7519H260.615H260.406L260.198 39.5427H259.989H259.781H259.572H259.364H259.155V39.3334H258.947H258.738H258.53H258.321H258.113H257.904H257.696V39.5427H257.487H257.279H257.07H256.862H256.653V39.7519H256.445H256.236H256.028V39.9611H255.819H255.611L255.402 40.1703H255.194L254.985 40.3795H254.777V40.5888H254.568L254.36 40.798H254.151V41.0072H253.943V41.2164H253.734L253.526 41.4256L253.317 41.6348V41.8441H253.109L252.9 42.0533L252.692 42.2625L252.483 42.4717V42.6809H252.275V42.8902H252.066V43.0994L251.858 43.3086H250.19L250.607 42.6809V42.4717H250.815V42.2625H251.024V42.0533H251.232V41.8441V41.6348H251.441V41.4256H251.649V41.2164H251.858V41.0072H252.066V40.798H252.275V40.5888H252.483V40.3795H252.692L252.9 40.1703L253.109 39.9611H253.317V39.7519H253.526V39.5427H253.734L253.943 39.3334L254.151 39.1242H254.36L254.568 38.915H254.777L254.985 38.7058H255.194L255.402 38.4966H255.611H255.819L256.028 38.2873H256.236H256.445L256.653 38.0781H256.862H257.07H257.279H257.487H257.696H257.904V37.8689H258.113H258.321H258.53H258.738H258.947H259.155H259.364H259.572V38.0781H259.781H259.989H260.198H260.406H260.615L260.823 38.2873H261.032H261.24L261.448 38.4966H261.657L261.865 38.7058H262.074L262.282 38.915H262.491V39.1242H262.699L262.908 39.3334L263.116 39.5427H263.325V39.7519H263.533V39.9611L263.742 40.1703V40.3795H263.95V40.5888H264.159V40.798V41.0072H264.367V41.2164V41.4256H264.576V41.6348V41.8441L264.784 42.0533V42.2625V42.4717V42.6809H264.993V42.8902V43.0994V43.3086V43.5178V43.727V43.9363V44.1455V44.3547V44.5639V44.7731V44.9824V45.1916V45.4008V45.61V45.8192H264.784V46.0285V46.2377V46.4469V46.6561L264.576 46.8653V47.0746V47.2838L264.367 47.493V47.7022L264.159 47.9114V48.1207V48.3299H263.95V48.5391V48.7483H263.742V48.9575V49.1668H263.533V49.376H263.325V49.5852V49.7944H263.116V50.0036H262.908V50.2129L262.699 50.4221V50.6313H262.491V50.8405H262.282V51.0497H262.074V51.259H261.865V51.4682H261.657V51.6774H261.448V51.8866H261.24L261.032 52.0958H260.823V52.3051H260.615V52.5143H260.406H260.198V52.7235H259.989L259.781 52.9327H259.572L259.364 53.1419H259.155L258.947 53.3512H258.738H258.53V53.5604H258.321H258.113H257.904V53.7696H257.696H257.487H257.279H257.07L256.862 53.9788H256.653H256.445H256.236H256.028H255.819H255.611H255.402H255.194H254.985H254.777H254.568H254.36H254.151L253.943 53.7696H253.734H253.526H253.317V53.5604H253.109H252.9H252.692V53.3512H252.483H252.275V53.1419H252.066L251.858 52.9327H251.649V52.7235H251.441L251.232 52.5143L251.024 52.3051L250.815 52.0958L250.607 51.8866V51.6774H250.398V51.4682L250.19 51.259V51.0497H249.981V50.8405L249.773 50.6313V50.4221V50.2129H249.564V50.0036V49.7944L249.356 49.5852V49.376L249.147 48.7483H250.815Z" fill="#F9E8A2"/>
<path fill-rule="evenodd" clip-rule="evenodd" d="M274.167 12.553H312.321L312.113 14.0175L273.959 14.2267L274.167 12.553Z" fill="#F9E8A2"/>
<path fill-rule="evenodd" clip-rule="evenodd" d="M273.124 17.3652L273.541 15.6914H311.695L311.278 17.3652H273.124Z" fill="#F9E8A2"/>
<path fill-rule="evenodd" clip-rule="evenodd" d="M272.916 18.8298H311.07L310.653 20.5036H272.499L272.916 18.8298Z" fill="#F9E8A2"/>
<path fill-rule="evenodd" clip-rule="evenodd" d="M272.29 22.1772L310.444 21.968L310.027 23.4325L271.873 23.6418L272.29 22.1772Z" fill="#F9E8A2"/>
<path fill-rule="evenodd" clip-rule="evenodd" d="M271.665 25.1062H309.819L305.649 45.819H289.178L293.139 26.78H287.719L283.757 45.819H267.495L271.665 25.1062Z" fill="#F9E8A2"/>
<path fill-rule="evenodd" clip-rule="evenodd" d="M222.878 26.9892L223.295 25.3154L261.449 25.1062L261.032 26.9892H250.607L246.646 45.819H229.55L233.302 26.9892H222.878Z" fill="#F9E8A2"/>
<path fill-rule="evenodd" clip-rule="evenodd" d="M225.796 12.553H263.95L263.742 14.0175H225.588L225.796 12.553ZM224.754 17.365L225.171 15.6913H263.325L262.908 17.365H224.754ZM224.545 18.8296H262.699L262.282 20.5033H224.128L224.545 18.8296ZM223.92 22.1771H262.074L261.865 23.6416H223.711L223.92 22.1771Z" fill="#F9E8A2"/>
<path fill-rule="evenodd" clip-rule="evenodd" d="M219.542 12.553L217.04 25.3154L216.623 26.7799H202.654C200.986 26.7799 199.735 27.4076 199.11 28.0352C198.693 28.4537 198.484 28.8721 198.484 29.2906C198.484 29.709 198.484 30.1274 198.693 30.5459C199.11 31.1735 200.152 31.8012 201.612 31.8012H206.407H215.581L215.164 33.2657V33.475H177.427C177.427 32.4289 177.427 31.3828 177.635 30.1274V29.9182V29.709C177.843 28.4537 178.26 27.4076 178.677 26.3615C178.886 25.9431 179.094 25.3154 179.511 24.6877C180.137 23.6416 180.762 22.5955 181.596 21.5494C181.805 21.131 182.222 20.9218 182.43 20.5033C183.056 19.6665 183.89 19.0388 184.515 18.4111C185.975 17.1558 187.643 15.9005 189.519 15.2728C191.395 14.436 193.48 13.8083 195.774 13.8083L219.542 12.553ZM213.913 39.5423L214.33 37.8686H178.469C178.677 38.4962 178.886 38.9147 179.303 39.5423H213.913ZM213.287 42.8899L213.704 41.2161H180.137C180.554 41.8438 181.179 42.4714 181.596 42.8899H213.287ZM212.662 46.0282L212.87 44.5636H183.681C185.558 45.6097 187.643 46.0282 189.936 46.0282H212.662ZM214.538 36.404L214.747 34.9395H177.427C177.427 35.3579 177.635 35.9856 177.635 36.404H214.538Z" fill="#F9E8A2"/>
<path d="M325.26 13H324.43V7.07H322.32V6.33H327.38V7.07H325.26V13ZM335.013 13H334.183V7.51L331.913 13H331.573L329.313 7.51V13H328.483V6.33H329.673L331.743 11.35L333.823 6.33H335.013V13Z" fill="#F9E8A2"/>
</svg>