<svg xmlns="http://www.w3.org/2000/svg" xmlns:xlink="http://www.w3.org/1999/xlink" width="245" height="98" viewBox="0 0 244.44 98.2">
    <defs>
        <style>
            .cls-1{fill:none;}.cls-2{clip-path:url(#clip-path);}.cls-3{fill:url(#Безымянный_градиент);}.cls-4{clip-path:url(#clip-path-2);}.cls-5{fill:url(#Безымянный_градиент_2);}.cls-6{clip-path:url(#clip-path-3);}.cls-7{fill:#231f20;}.cls-8{clip-path:url(#clip-path-4);}.cls-9{fill:url(#Безымянный_градиент_6);}.cls-10{clip-path:url(#clip-path-5);}.cls-11{fill:url(#Безымянный_градиент_6-2);}.cls-12{clip-path:url(#clip-path-6);}.cls-13{fill:url(#Безымянный_градиент_6-3);}.cls-14{clip-path:url(#clip-path-7);}.cls-15{fill:url(#Безымянный_градиент_6-4);}.cls-16{clip-path:url(#clip-path-8);}.cls-17{fill:url(#Безымянный_градиент_10);}.cls-18{clip-path:url(#clip-path-9);}.cls-19{fill:url(#Безымянный_градиент_10-2);}.cls-20{clip-path:url(#clip-path-10);}.cls-21{fill:url(#Безымянный_градиент_10-3);}.cls-22{clip-path:url(#clip-path-11);}.cls-23{fill:url(#Безымянный_градиент_10-4);}.cls-24{clip-path:url(#clip-path-12);}.cls-25{fill:url(#Безымянный_градиент_18);}.cls-26{clip-path:url(#clip-path-13);}.cls-27{fill:url(#Безымянный_градиент_18-2);}.cls-28{clip-path:url(#clip-path-14);}.cls-29{fill:url(#Безымянный_градиент_13);}.cls-30{clip-path:url(#clip-path-15);}.cls-31{fill:url(#Безымянный_градиент_18-3);}.cls-32{clip-path:url(#clip-path-16);}.cls-33{fill:url(#Безымянный_градиент_18-4);}.cls-34{clip-path:url(#clip-path-17);}.cls-35{fill:url(#Безымянный_градиент_19);}.cls-36{clip-path:url(#clip-path-18);}.cls-37{fill:url(#Безымянный_градиент_18-5);}.cls-38{clip-path:url(#clip-path-19);}.cls-39{fill:url(#Безымянный_градиент_18-6);}.cls-40{clip-path:url(#clip-path-20);}.cls-41{fill:url(#Безымянный_градиент_19-2);}.cls-42{clip-path:url(#clip-path-21);}.cls-43{fill:url(#Безымянный_градиент_20);}
        </style>
        <clipPath id="clip-path" transform="translate(-178.25 -170.03)">
            <path class="cls-1"
                  d="M232.35,212.93a13.34,13.34,0,0,0-6.85,11.86v24.35s16.54-9.61,21-12.11a13.33,13.33,0,0,0,7-11.91c0-5.09,0-24.37,0-24.37s-16.72,9.65-21.08,12.18"/>
        </clipPath>
        <linearGradient id="Безымянный_градиент" y1="841.89" x2="1" y2="841.89"
                        gradientTransform="matrix(-34.38, 0, 0, 34.38, 256.53, -28718.31)"
                        gradientUnits="userSpaceOnUse">
            <stop offset="0" stop-color="#f26722"/>
            <stop offset="1" stop-color="#faa61a"/>
        </linearGradient>
        <clipPath id="clip-path-2" transform="translate(-178.25 -170.03)">
            <path class="cls-1"
                  d="M209,171.84c-1.49.85-15.31,8.83-23.92,13.81a13.35,13.35,0,0,0-6.85,11.87v.09s0,22.45,0,27.51a13.38,13.38,0,0,0,6.9,11.88c4.39,2.51,30.69,17.71,30.69,17.71V219.22a13.35,13.35,0,0,1,6.86-11.87l30.72-17.74s-28.43-16.4-30.64-17.7a13.75,13.75,0,0,0-13.76-.07"/>
        </clipPath>
        <radialGradient id="Безымянный_градиент_2" cx="0" cy="841.89" r="1"
                        gradientTransform="matrix(40.04, 0, 0, -40.04, 37.59, 33749.01)" gradientUnits="userSpaceOnUse">
            <stop offset="0" stop-color="#ed1b2f"/>
            <stop offset="1" stop-color="#94111e"/>
        </radialGradient>
        <clipPath id="clip-path-3" transform="translate(-178.25 -170.03)">
            <rect class="cls-1" width="1190.55" height="841.89"/>
        </clipPath>
        <clipPath id="clip-path-4" transform="translate(-178.25 -170.03)">
            <path class="cls-1"
                  d="M288,209a19.61,19.61,0,0,1-.78-6.06,19.86,19.86,0,0,1,.78-6.07,24.23,24.23,0,0,1,12.12,0,19.64,19.64,0,0,1,.78,6.07,20.07,20.07,0,0,1-.77,6.06A24,24,0,0,1,288,209m-9.31-21.44s-2.56,5.24-2.56,15.38,2.56,15.37,2.56,15.37,5.3,2.56,15.37,2.56,15.37-2.56,15.37-2.56S312,213.07,312,203s-2.56-15.37-2.56-15.37S304.24,185,294.1,185s-15.37,2.56-15.37,2.56"/>
        </clipPath>
        <linearGradient id="Безымянный_градиент_6" y1="841.89" x2="1" y2="841.89"
                        gradientTransform="matrix(0, -35.87, -35.87, 0, 30312.49, 50.86)"
                        gradientUnits="userSpaceOnUse">
            <stop offset="0" stop-color="#9c1421"/>
            <stop offset="1" stop-color="#be1e2d"/>
        </linearGradient>
        <clipPath id="clip-path-5" transform="translate(-178.25 -170.03)">
            <polygon class="cls-1"
                     points="334.61 185.86 329.39 195.83 326.65 195.83 326.65 185.86 313.49 185.86 313.49 220.03 326.65 220.03 326.65 207.99 329.75 207.99 336.19 220.03 350.08 220.03 340.96 201.39 348.49 185.86 334.61 185.86"/>
        </clipPath>
        <linearGradient id="Безымянный_градиент_6-2" x1="0" y1="841.89" x2="1" y2="841.89"
                        gradientTransform="matrix(0, -34.17, -34.17, 0, 28921.67, 50.01)"
                        xlink:href="#Безымянный_градиент_6"/>
        <clipPath id="clip-path-6" transform="translate(-178.25 -170.03)">
            <polygon class="cls-1"
                     points="371.63 185.86 371.63 195.83 363.27 195.83 363.27 185.86 350.11 185.86 350.11 220.03 363.27 220.03 363.27 207.99 371.63 207.99 371.63 220.03 384.78 220.03 384.78 185.86 371.63 185.86"/>
        </clipPath>
        <linearGradient id="Безымянный_градиент_6-3" x1="0" y1="841.89" x2="1" y2="841.89"
                        gradientTransform="matrix(0, -34.17, -34.17, 0, 28957.34, 50.01)"
                        xlink:href="#Безымянный_градиент_6"/>
        <clipPath id="clip-path-7" transform="translate(-178.25 -170.03)">
            <path class="cls-1"
                  d="M399.1,196.84a16.72,16.72,0,0,1,5.64-.73,17.16,17.16,0,0,1,5.64.73,17.49,17.49,0,0,1,.75,4.69H398.34a18,18,0,0,1,.76-4.69m-9.73-9.27s-2.57,5.24-2.57,15.38V220h11.51v-6.34h12.86V220h11.5V203c0-10.12-2.56-15.37-2.56-15.37S414.88,185,404.74,185s-15.37,2.56-15.37,2.56"/>
        </clipPath>
        <linearGradient id="Безымянный_градиент_6-4" x1="0" y1="841.89" x2="1" y2="841.89"
                        gradientTransform="matrix(0, -35.02, -35.02, 0, 29708.26, 50.01)"
                        xlink:href="#Безымянный_градиент_6"/>
        <clipPath id="clip-path-8" transform="translate(-178.25 -170.03)">
            <path class="cls-1"
                  d="M287,210.1s-1.11-2.2-1.11-7.15,1.11-7.16,1.11-7.16,2.19-1.1,7.15-1.1,7.16,1.1,7.16,1.1,1.1,2.2,1.1,7.16-1.1,7.15-1.1,7.15-2.23,1.11-7.16,1.11S287,210.1,287,210.1m-7.16-21.47s-2.21,4.4-2.21,14.32,2.21,14.31,2.21,14.31,4.45,2.2,14.31,2.2,14.32-2.2,14.32-2.2,2.2-4.41,2.2-14.31-2.2-14.32-2.2-14.32-4.4-2.2-14.32-2.2-14.31,2.2-14.31,2.2"/>
        </clipPath>
        <linearGradient id="Безымянный_градиент_10" y1="841.89" x2="1" y2="841.89"
                        gradientTransform="matrix(0, -33.03, -33.03, 0, 27927, 49.44)" gradientUnits="userSpaceOnUse">
            <stop offset="0" stop-color="#f15a22"/>
            <stop offset="0.27" stop-color="#f57a1f"/>
            <stop offset="0.54" stop-color="#f8921c"/>
            <stop offset="0.79" stop-color="#f9a11b"/>
            <stop offset="1" stop-color="#faa61a"/>
        </linearGradient>
        <clipPath id="clip-path-9" transform="translate(-178.25 -170.03)">
            <polygon class="cls-1"
                     points="335.46 187.28 330.25 197.24 325.23 197.24 325.23 187.28 314.9 187.28 314.9 218.61 325.23 218.61 325.23 206.57 330.6 206.57 337.04 218.61 347.81 218.61 339.38 201.39 346.23 187.28 335.46 187.28"/>
        </clipPath>
        <linearGradient id="Безымянный_градиент_10-2" x1="0" y1="841.89" x2="1" y2="841.89"
                        gradientTransform="matrix(0, -31.34, -31.34, 0, 26535.34, 48.59)"
                        xlink:href="#Безымянный_градиент_10"/>
        <clipPath id="clip-path-10" transform="translate(-178.25 -170.03)">
            <polygon class="cls-1"
                     points="373.04 187.28 373.04 197.24 361.85 197.24 361.85 187.28 351.52 187.28 351.52 218.61 361.85 218.61 361.85 206.57 373.04 206.57 373.04 218.61 383.37 218.61 383.37 187.28 373.04 187.28"/>
        </clipPath>
        <linearGradient id="Безымянный_градиент_10-3" x1="0" y1="841.89" x2="1" y2="841.89"
                        gradientTransform="matrix(0, -31.34, -31.34, 0, 26571.43, 48.59)"
                        xlink:href="#Безымянный_градиент_10"/>
        <clipPath id="clip-path-11" transform="translate(-178.25 -170.03)">
            <path class="cls-1"
                  d="M398,195.79s1.79-1.1,6.75-1.1,6.74,1.1,6.74,1.1,1.1,2.2,1.1,7.16H396.89c0-5,1.1-7.16,1.1-7.16m-7.57-7.16s-2.2,4.4-2.2,14.32v15.66h8.67v-6.34h15.69v6.34h8.68V203c0-9.9-2.21-14.32-2.21-14.32s-4.39-2.2-14.31-2.2-14.32,2.2-14.32,2.2"/>
        </clipPath>
        <linearGradient id="Безымянный_градиент_10-4" x1="0" y1="841.89" x2="1" y2="841.89"
                        gradientTransform="matrix(0, -32.18, -32.18, 0, 27322.36, 48.59)"
                        xlink:href="#Безымянный_градиент_10"/>
        <clipPath id="clip-path-12" transform="translate(-178.25 -170.03)">
            <path class="cls-1"
                  d="M280.65,188.89v.6c1.19-.47,5.52-1.93,13.45-1.93s12.26,1.46,13.45,1.93v-.6c-1.5-.57-5.83-1.89-13.45-1.89s-12,1.32-13.45,1.89"/>
        </clipPath>
        <linearGradient id="Безымянный_градиент_18" y1="841.89" x2="1" y2="841.89"
                        gradientTransform="matrix(26.9, 0, 0, -26.9, 102.4, 22668.68)" gradientUnits="userSpaceOnUse">
            <stop offset="0" stop-color="#faa41a"/>
            <stop offset="0.5" stop-color="#ffe5c2"/>
            <stop offset="1" stop-color="#faa41a"/>
        </linearGradient>
        <clipPath id="clip-path-13" transform="translate(-178.25 -170.03)">
            <path class="cls-1"
                  d="M391.29,188.89v.6c1.19-.47,5.52-1.93,13.45-1.93S417,189,418.19,189.49v-.6c-1.5-.57-5.83-1.89-13.45-1.89s-11.95,1.32-13.45,1.89"/>
        </clipPath>
        <linearGradient id="Безымянный_градиент_18-2" x1="0" y1="841.89" x2="1" y2="841.89"
                        gradientTransform="matrix(26.9, 0, 0, -26.9, 213.04, 22668.68)"
                        xlink:href="#Безымянный_градиент_18"/>
        <clipPath id="clip-path-14" transform="translate(-178.25 -170.03)">
            <path class="cls-1"
                  d="M294.1,211.77a19.62,19.62,0,0,1-7.15-1.05v.61a25.85,25.85,0,0,0,14.31,0v-.61a19.75,19.75,0,0,1-7.16,1.05"/>
        </clipPath>
        <linearGradient id="Безымянный_градиент_13" y1="841.89" x2="1" y2="841.89"
                        gradientTransform="matrix(14.32, 0, 0, -14.32, 108.7, 12093.52)" gradientUnits="userSpaceOnUse">
            <stop offset="0" stop-color="#f47b20"/>
            <stop offset="0.5" stop-color="#ffe5c2"/>
            <stop offset="1" stop-color="#f47b20"/>
        </linearGradient>
        <clipPath id="clip-path-15" transform="translate(-178.25 -170.03)">
            <rect class="cls-1" x="315.47" y="187.84" width="9.19" height="0.57"/>
        </clipPath>
        <linearGradient id="Безымянный_градиент_18-3" x1="0" y1="841.89" x2="1" y2="841.89"
                        gradientTransform="matrix(9.19, 0, 0, -9.19, 137.22, 7756.26)"
                        xlink:href="#Безымянный_градиент_18"/>
        <clipPath id="clip-path-16" transform="translate(-178.25 -170.03)">
            <rect class="cls-1" x="352.09" y="187.84" width="9.19" height="0.57"/>
        </clipPath>
        <linearGradient id="Безымянный_градиент_18-4" x1="0" y1="841.89" x2="1" y2="841.89"
                        gradientTransform="matrix(9.19, 0, 0, -9.19, 173.84, 7756.26)"
                        xlink:href="#Безымянный_градиент_18"/>
        <clipPath id="clip-path-17" transform="translate(-178.25 -170.03)">
            <rect class="cls-1" x="361.28" y="197.81" width="12.33" height="0.57"/>
        </clipPath>
        <linearGradient id="Безымянный_градиент_19" y1="841.89" x2="1" y2="841.89"
                        gradientTransform="matrix(12.33, 0, 0, -12.33, 183.03, 10405.35)"
                        gradientUnits="userSpaceOnUse">
            <stop offset="0" stop-color="#f99d1c"/>
            <stop offset="0.5" stop-color="#ffe5c2"/>
            <stop offset="1" stop-color="#f99d1c"/>
        </linearGradient>
        <clipPath id="clip-path-18" transform="translate(-178.25 -170.03)">
            <rect class="cls-1" x="373.61" y="187.84" width="9.19" height="0.57"/>
        </clipPath>
        <linearGradient id="Безымянный_градиент_18-5" x1="0" y1="841.89" x2="1" y2="841.89"
                        gradientTransform="matrix(9.19, 0, 0, -9.19, 195.36, 7754.61)"
                        xlink:href="#Безымянный_градиент_18"/>
        <clipPath id="clip-path-19" transform="translate(-178.25 -170.03)">
            <rect class="cls-1" x="335.81" y="187.84" width="9.5" height="0.57"/>
        </clipPath>
        <linearGradient id="Безымянный_градиент_18-6" x1="0" y1="841.89" x2="1" y2="841.89"
                        gradientTransform="matrix(9.5, 0, 0, -9.5, 157.56, 8016.88)"
                        xlink:href="#Безымянный_градиент_18"/>
        <clipPath id="clip-path-20" transform="translate(-178.25 -170.03)">
            <rect class="cls-1" x="325.23" y="197.81" width="5.71" height="0.57"/>
        </clipPath>
        <linearGradient id="Безымянный_градиент_19-2" x1="0" y1="841.89" x2="1" y2="841.89"
                        gradientTransform="matrix(5.71, 0, 0, -5.71, 146.98, 4836.05)"
                        xlink:href="#Безымянный_градиент_19"/>
        <clipPath id="clip-path-21" transform="translate(-178.25 -170.03)">
            <rect class="cls-1" x="396.33" y="203.52" width="16.83" height="0.57"/>
        </clipPath>
        <linearGradient id="Безымянный_градиент_20" y1="841.89" x2="1" y2="841.89"
                        gradientTransform="matrix(16.83, 0, 0, -16.83, 218.08, 14198.74)"
                        gradientUnits="userSpaceOnUse">
            <stop offset="0" stop-color="#f78d1e"/>
            <stop offset="0.5" stop-color="#ffe5c2"/>
            <stop offset="1" stop-color="#f78d1e"/>
        </linearGradient>
    </defs>
    <title>Ресурс 5</title>
    <g id="Слой_2" dataName="Слой 2">
        <g id="Слой_1-2" dataName="Слой 1">
            <g class="cls-2">
                <rect class="cls-3" x="211.63" y="199.67" width="55.68" height="50.56"
                      transform="matrix(0.57, -0.82, 0.82, 0.57, -260.15, 123.21)"/>
            </g>
            <g class="cls-4">
                <rect class="cls-5" width="75.19" height="84.69"/>
            </g>
            <g class="cls-6">
                <polygon class="cls-7"
                         points="113.74 69.1 113.3 69.1 111.96 69.1 111.52 69.1 111.52 68.66 111.52 57.52 100.96 57.52 100.96 68.66 100.96 69.1 100.52 69.1 99.18 69.1 98.74 69.1 98.74 68.66 98.74 55.74 98.74 55.3 99.18 55.3 113.3 55.3 113.74 55.3 113.74 55.74 113.74 68.66 113.74 69.1"/>
                <path class="cls-7"
                      d="M304.85,239.13H299.2a5.8,5.8,0,0,1-4-1.1c-.83-.74-1.23-2-1.23-3.77v-4a5.35,5.35,0,0,1,1.18-3.87c.8-.79,2.12-1.18,4.05-1.18h5.65a5.65,5.65,0,0,1,3.79,1c.87.78,1.3,2.1,1.3,4.05v4c0,1.94-.39,3.22-1.19,3.92s-2,.95-3.9.95m-5.66-11.75a3.68,3.68,0,0,0-2.37.57,2.87,2.87,0,0,0-.63,2.19v4.12a2.86,2.86,0,0,0,.59,2.15,3.69,3.69,0,0,0,2.41.53h5.65c1.52,0,2.13-.27,2.37-.49s.51-.78.51-2.19v-4.12c0-1.43-.29-2-.54-2.24a3.51,3.51,0,0,0-2.34-.52Z"
                      transform="translate(-178.25 -170.03)"/>
                <path class="cls-7"
                      d="M322.4,239.12H312V225.33h10c4.08,0,4.93,2,4.93,3.75a3.74,3.74,0,0,1-.66,2.34,2.8,2.8,0,0,1-.41.43.18.18,0,0,1,.07.05,3.44,3.44,0,0,1,1.38,3,3.94,3.94,0,0,1-1.33,3.32,5.82,5.82,0,0,1-3.64.91m-8.15-2.18h8.67a2.55,2.55,0,0,0,1.71-.48,2,2,0,0,0,.52-1.57,1.64,1.64,0,0,0-.53-1.41,3,3,0,0,0-1.82-.45h-8.55Zm0-6.09h8.34a3.06,3.06,0,0,0,1.72-.33,1.46,1.46,0,0,0,.47-1.28,1.62,1.62,0,0,0-.43-1.28,2.64,2.64,0,0,0-1.76-.45h-8.34Z"
                      transform="translate(-178.25 -170.03)"/>
                <path class="cls-7"
                      d="M340.2,239.12h-5.65c-1.89,0-3.21-.35-4-1.08s-1.22-2-1.22-3.78v-4a5.3,5.3,0,0,1,1.18-3.87c.78-.79,2.11-1.18,4.05-1.18h5.65a5.61,5.61,0,0,1,3.78,1c.88.78,1.3,2.1,1.3,4.05v4c0,1.93-.39,3.21-1.19,3.92s-2,.94-3.89.94m-5.67-11.74a3.68,3.68,0,0,0-2.37.57,2.87,2.87,0,0,0-.63,2.19v4.12a2.88,2.88,0,0,0,.59,2.15,3.76,3.76,0,0,0,2.41.53h5.65c1.53,0,2.13-.26,2.37-.49s.52-.78.52-2.19v-4.12c0-1.43-.3-2-.55-2.24s-.86-.52-2.34-.52Z"
                      transform="translate(-178.25 -170.03)"/>
                <path class="cls-7"
                      d="M362.8,239.12h-2.21V227.55H351v8.08a3.56,3.56,0,0,1-.92,2.71,3.48,3.48,0,0,1-2.46.78h-1v-2.18h1.14a.84.84,0,0,0,.64-.21,1.43,1.43,0,0,0,.35-1.1v-10.3H362.8v13.79Z"
                      transform="translate(-178.25 -170.03)"/>
                <polygon class="cls-7"
                         points="212.9 69.1 211.67 69.1 209.57 69.1 209.41 69.1 209.29 69 201.92 62.82 200.14 62.82 200.14 68.66 200.14 69.1 199.71 69.1 198.37 69.1 197.93 69.1 197.93 68.66 197.93 62.82 196.17 62.82 188.78 69 188.66 69.1 188.5 69.1 186.4 69.1 185.17 69.1 186.12 68.32 194.17 61.72 186.31 56.1 185.2 55.3 186.57 55.3 188.72 55.3 188.86 55.3 188.98 55.38 196.35 60.64 197.93 60.64 197.93 55.74 197.93 55.3 198.37 55.3 199.71 55.3 200.14 55.3 200.14 55.74 200.14 60.64 201.72 60.64 209.09 55.38 209.21 55.3 209.34 55.3 211.5 55.3 212.87 55.3 211.76 56.1 203.9 61.72 211.95 68.32 212.9 69.1"/>
                <path class="cls-7"
                      d="M401.7,239.12h-9.64V225.33h2.22v5.35h6.94a5.88,5.88,0,0,1,3.76.95,4,4,0,0,1,1.19,3.3,4.35,4.35,0,0,1-1,3.22,4.88,4.88,0,0,1-3.44,1m-7.42-2.18h7.46a2.82,2.82,0,0,0,1.79-.39A2.12,2.12,0,0,0,404,235a2.35,2.35,0,0,0-.45-1.68,2.91,2.91,0,0,0-1.89-.43h-7.33Z"
                      transform="translate(-178.25 -170.03)"/>
                <path class="cls-7"
                      d="M421.85,239.12h-2.21v-5.33h-5.77l-4,5.16-.13.17h-3l.6-.72,3.83-4.66a4.07,4.07,0,0,1-2.29-1,3.9,3.9,0,0,1-1.12-3,4.31,4.31,0,0,1,1.21-3.41,5.6,5.6,0,0,1,3.76-1h9.13v13.79Zm-9.67-11.61a1.81,1.81,0,0,0-2.22,2.25c0,.77.14,1.29.42,1.49a3.24,3.24,0,0,0,1.93.36h7.33v-4.1Z"
                      transform="translate(-178.25 -170.03)"/>
                <path class="cls-7"
                      d="M281.87,261.25l0,.08c1,.16,1.67.73,1.67,1.62,0,2.32-2.52,2.79-3.77,2.79s-2.92-.08-3.6-.15l.47-.59.36-.07c.24,0,.33-.2.37-.42l1.11-5.09a2.38,2.38,0,0,0,.08-.56c0-.38-.24-.42-.77-.47l.41-.59a28.55,28.55,0,0,1,3.16-.19c1.11,0,2.51.15,2.51,1.46a2.35,2.35,0,0,1-2,2.18m-1.66.55h-.55l-.52,2.42a2.55,2.55,0,0,0-.05.41c0,.23.21.39,1,.39.59,0,1.77-.3,1.77-2.09,0-.83-.69-1.13-1.62-1.13m1-3.5c-.71,0-.78.17-.82.37l-.55,2.5h.68c.75,0,1.69-.54,1.69-2,0-.63-.38-.84-1-.84"
                      transform="translate(-178.25 -170.03)"/>
                <path class="cls-7"
                      d="M290.2,260.15l-1,3.93a2,2,0,0,0-.07.48c0,.42.28.45.71.45l-.27.55a7.78,7.78,0,0,1-1.48.18c-.48,0-.49-.46-.49-1a3.43,3.43,0,0,1-2.07,1,1.41,1.41,0,0,1-1.49-1.62,4.27,4.27,0,0,1,1-2.84A3.64,3.64,0,0,1,287.8,260c.52,0,1,.15,1.29.15a3.55,3.55,0,0,0,1-.1Zm-1.89.73a.84.84,0,0,0-.7-.25c-.57,0-1,.42-1.29,1a4.56,4.56,0,0,0-.59,2.23c0,.69.33.91.7.91.95,0,1.23-1.11,1.46-2.12Z"
                      transform="translate(-178.25 -170.03)"/>
                <path class="cls-7"
                      d="M299.93,265.58a6,6,0,0,1-1.56.16c-.43,0-.55-.28-.55-.62,0-.06,0-.3,0-.47a3.18,3.18,0,0,1-2.32,1.09,1.08,1.08,0,0,1-1.08-1.09,3.29,3.29,0,0,1-2.24,1.09c-.7,0-1.16-.24-1.16-1.09a6,6,0,0,1,.16-1.2l.37-2a1.73,1.73,0,0,0,0-.32c0-.22-.08-.3-.29-.32l-.51-.06.4-.52a16.9,16.9,0,0,1,2.24-.15l-.63,3.16a5.9,5.9,0,0,0-.12.9.45.45,0,0,0,.49.47c.8,0,1.39-1,1.51-1.63l.32-1.53c.1-.51.14-.85.21-1.26a6.65,6.65,0,0,1,1.26-.13l.4,0-.63,3.16a5.9,5.9,0,0,0-.13.9.43.43,0,0,0,.43.47c.88,0,1.45-1,1.57-1.63l.32-1.53c.1-.51.14-.85.21-1.26a6.65,6.65,0,0,1,1.26-.13l.4,0-.74,3.5a6.16,6.16,0,0,0-.17,1c0,.35.23.36.91.36Z"
                      transform="translate(-178.25 -170.03)"/>
                <path class="cls-7"
                      d="M309.05,263.55a3.68,3.68,0,0,1-3.25,2.31,1.81,1.81,0,0,1-2-2,4.35,4.35,0,0,1,1-2.85,3,3,0,0,1,2.28-1.12,1.94,1.94,0,0,1,1.21.29s0-.38,0-.69a2.35,2.35,0,0,0-2.68-2.47l.27-.58c1.85,0,3.95.69,3.95,3.45a8.1,8.1,0,0,1-.81,3.64m-1.86-2.9a1.46,1.46,0,0,0-1.28.92,4.78,4.78,0,0,0-.45,2.07c0,1,.31,1.5.83,1.5s1-.67,1.24-1.32a12.19,12.19,0,0,0,.54-2.45.82.82,0,0,0-.88-.72"
                      transform="translate(-178.25 -170.03)"/>
                <path class="cls-7"
                      d="M315.29,264.43a3.6,3.6,0,0,1-2.89,1.43,1.89,1.89,0,0,1-2.17-2,3.94,3.94,0,0,1,1.1-2.83A3.57,3.57,0,0,1,314,260c1.64,0,2.18.9,2.18,1.93a3.91,3.91,0,0,1-.85,2.53m-1.63-3.77a1.22,1.22,0,0,0-1,.54,5.1,5.1,0,0,0-.75,2.58c0,.76.16,1.39.84,1.39.47,0,1-.33,1.36-1.35a7.29,7.29,0,0,0,.37-1.84c0-.68-.09-1.32-.81-1.32"
                      transform="translate(-178.25 -170.03)"/>
                <path class="cls-7"
                      d="M325,261.23l-.48,2.38a8.23,8.23,0,0,0-.17,1c0,.35.33.41.82.43l-.37.58a10.19,10.19,0,0,1-1.55.15c-.51,0-.66-.28-.66-.62a6.24,6.24,0,0,1,.14-.77l.54-2.5-2.81,3.85H320l-.76-3.83c-.65,2.83-1.46,3.92-2.6,3.92a1.51,1.51,0,0,1-.75-.22,3.28,3.28,0,0,1,.73-1.27,1.57,1.57,0,0,0,.47.11c.23,0,.49,0,.87-.52a5.43,5.43,0,0,0,.61-2.33c0-.51-.19-.68-1-.68l.5-.59a17.73,17.73,0,0,1,2.32-.15l.74,3.66,2.48-3.51a5.63,5.63,0,0,1,1.67-.15s-.15.61-.26,1.1"
                      transform="translate(-178.25 -170.03)"/>
                <path class="cls-7"
                      d="M334.92,257.76a4.58,4.58,0,0,1-1.4.75c-.76.26-1.42.44-2,.7A2.33,2.33,0,0,0,330,260.9h.12a3.79,3.79,0,0,1,2.44-.93c1.46,0,2,.72,2,1.84a4.15,4.15,0,0,1-1,2.62,3.91,3.91,0,0,1-2.81,1.43c-1.59,0-2.15-.78-2.15-2a9.66,9.66,0,0,1,1.1-4,5.1,5.1,0,0,1,2.31-2.37,31.58,31.58,0,0,0,3.23-1.4,3.22,3.22,0,0,1-.27,1.65m-3,2.94a1.37,1.37,0,0,0-1.26.94,6.37,6.37,0,0,0-.52,2.42c0,.94.35,1.11.8,1.11s1-.51,1.38-1.41a7.46,7.46,0,0,0,.44-2c0-.85-.44-1-.84-1"
                      transform="translate(-178.25 -170.03)"/>
                <path class="cls-7"
                      d="M339.9,262.66l-3,.1a3.18,3.18,0,0,0-.07.75,1.29,1.29,0,0,0,1.31,1.41,3.77,3.77,0,0,0,2-.59l-.18.76a3.93,3.93,0,0,1-2.37.77,2.21,2.21,0,0,1-2.49-2.35,3.85,3.85,0,0,1,.94-2.5,3.41,3.41,0,0,1,2.54-1c1.48,0,2,.72,2,1.55s-.38,1.13-.73,1.14m-1.48-2c-.59,0-1.11.45-1.39,1.5l1.31-.12c.48,0,.83-.15.83-.66a.68.68,0,0,0-.75-.72"
                      transform="translate(-178.25 -170.03)"/>
                <path class="cls-7"
                      d="M344.32,262.69v.08c.48.07,1.5.32,1.5,1.21,0,1.29-1.34,1.85-2.93,1.85a3,3,0,0,1-2.15-.78,2.91,2.91,0,0,1,1-.79,1.21,1.21,0,0,0,1.2.89A1.07,1.07,0,0,0,344.1,264c0-.71-.52-.8-1.13-.8h-.66l.29-.65h.64a1.18,1.18,0,0,0,1.19-1.31.55.55,0,0,0-.63-.58c-.61,0-1.08.33-1.82,1.51l-.35-.3a6,6,0,0,1,.58-1.6,5.71,5.71,0,0,1,1.91-.28c1.05,0,2,.29,2,1.11,0,1.08-1.26,1.45-1.77,1.61"
                      transform="translate(-178.25 -170.03)"/>
                <path class="cls-7"
                      d="M358.57,265.58a6.18,6.18,0,0,1-1.57.16c-.43,0-.55-.28-.55-.62,0-.06,0-.3,0-.47a3.16,3.16,0,0,1-2.32,1.09,1.07,1.07,0,0,1-1.07-1.09,3.33,3.33,0,0,1-2.24,1.09c-.71,0-1.17-.24-1.17-1.09a6.86,6.86,0,0,1,.16-1.2l.37-2a1.17,1.17,0,0,0,0-.32c0-.22-.08-.3-.3-.32l-.51-.06.4-.52a16.9,16.9,0,0,1,2.24-.15l-.62,3.16a5,5,0,0,0-.13.9.45.45,0,0,0,.49.47c.8,0,1.39-1,1.52-1.63l.31-1.53c.11-.51.14-.85.21-1.26a6.67,6.67,0,0,1,1.27-.13l.39,0-.63,3.16a5.9,5.9,0,0,0-.13.9.43.43,0,0,0,.43.47c.89,0,1.45-1,1.58-1.63l.31-1.53c.11-.51.14-.85.21-1.26a6.67,6.67,0,0,1,1.27-.13l.39,0-.73,3.5a6.16,6.16,0,0,0-.17,1c0,.35.22.36.9.36Z"
                      transform="translate(-178.25 -170.03)"/>
                <path class="cls-7"
                      d="M364.49,262.23l-1.81,3.08a15.41,15.41,0,0,1-1.29,1.83,2.28,2.28,0,0,1-1.91,1.09,1.59,1.59,0,0,1-1-.42,3.77,3.77,0,0,1,1-1,1.65,1.65,0,0,0,.82.27c.37,0,.86-.33.86-1.23a5.89,5.89,0,0,0-.08-1l-.48-3.17c-.08-.51-.2-.81-.51-.85l-.46-.07.44-.52a11.48,11.48,0,0,1,1.87-.15,10.94,10.94,0,0,1,.28,1.6l.32,2.71,1-2.09a4.93,4.93,0,0,0,.56-2,1.74,1.74,0,0,1,.95-.24,1.47,1.47,0,0,1,.39.09,13,13,0,0,1-1,2.08"
                      transform="translate(-178.25 -170.03)"/>
                <path class="cls-7"
                      d="M373.75,261.23l-.49,2.38c-.05.28-.16.8-.16,1,0,.35.32.41.82.43l-.37.58a10.32,10.32,0,0,1-1.55.15c-.51,0-.66-.28-.66-.62a6.24,6.24,0,0,1,.14-.77l.54-2.5-2.81,3.85h-.5l-.76-3.83c-.64,2.83-1.46,3.92-2.59,3.92a1.57,1.57,0,0,1-.76-.22,3.3,3.3,0,0,1,.74-1.27,1.59,1.59,0,0,0,.46.11c.24,0,.5,0,.88-.52a5.43,5.43,0,0,0,.61-2.33c0-.51-.2-.68-1-.68l.5-.59a17.73,17.73,0,0,1,2.32-.15l.74,3.66,2.48-3.51a5.59,5.59,0,0,1,1.67-.15s-.16.61-.26,1.1"
                      transform="translate(-178.25 -170.03)"/>
                <path class="cls-7"
                      d="M380.69,260.15l-1,3.93a2.65,2.65,0,0,0-.07.48c0,.42.29.45.72.45l-.27.55a7.79,7.79,0,0,1-1.49.18c-.47,0-.49-.46-.49-1a3.41,3.41,0,0,1-2.07,1,1.41,1.41,0,0,1-1.48-1.62,4.32,4.32,0,0,1,1-2.84,3.66,3.66,0,0,1,2.78-1.34c.52,0,1,.15,1.29.15a3.59,3.59,0,0,0,.95-.1Zm-1.89.73a.88.88,0,0,0-.71-.25c-.56,0-1,.42-1.29,1a4.66,4.66,0,0,0-.58,2.23c0,.69.32.91.7.91.95,0,1.22-1.11,1.46-2.12Z"
                      transform="translate(-178.25 -170.03)"/>
                <path class="cls-7"
                      d="M389.76,265.58a6.18,6.18,0,0,1-1.57.16c-.43,0-.55-.28-.55-.62,0-.06,0-.3,0-.47a3.18,3.18,0,0,1-2.24,1.09c-.7,0-1.16-.24-1.16-1.14a8.47,8.47,0,0,1,.15-1.15l.38-2a1.73,1.73,0,0,0,0-.32c0-.22-.08-.3-.29-.32l-.51-.06.39-.52a17,17,0,0,1,2.25-.15l-.63,3.16a4.86,4.86,0,0,0-.12.9.42.42,0,0,0,.45.47c.85,0,1.52-1.28,1.59-1.63l.31-1.53c.11-.51.14-.85.21-1.26a6.67,6.67,0,0,1,1.27-.13l.39,0-.73,3.5a5.26,5.26,0,0,0-.17,1c0,.35.22.36.9.36Z"
                      transform="translate(-178.25 -170.03)"/>
                <path class="cls-7"
                      d="M399.4,265.58a10.19,10.19,0,0,1-1.55.15c-.51,0-.66-.28-.66-.62a6.24,6.24,0,0,1,.14-.77l.48-2.28a2.85,2.85,0,0,0,.08-.57c0-.19-.05-.42-.44-.42-.71,0-1.38.74-1.59,1.8l-.24,1.17c-.12.56-.26,1.18-.3,1.54a9.57,9.57,0,0,1-1.68.12c.1-.34.21-.86.26-1.11l.64-3.12a1.35,1.35,0,0,0,0-.37c0-.14-.09-.23-.31-.25l-.51-.06.4-.52a16.9,16.9,0,0,1,2.24-.15l-.15.86a3.34,3.34,0,0,1,2.12-1c.85,0,1.19.42,1.19.94a4.38,4.38,0,0,1-.09.85l-.36,1.79a8.23,8.23,0,0,0-.17,1c0,.35.33.41.82.43Z"
                      transform="translate(-178.25 -170.03)"/>
                <path class="cls-7"
                      d="M403,265.77a4.79,4.79,0,0,1-2.43-.57,3,3,0,0,0,.27-.8l.55-2.74c0-.18.08-.4.08-.49s-.08-.3-.3-.32l-.51-.06.4-.52a16.9,16.9,0,0,1,2.24-.15l-.43,2.28a3.88,3.88,0,0,1,1.33-.29c.64,0,1.57.08,1.57,1.34a2.62,2.62,0,0,1-2.77,2.32m.56-2.91a1.63,1.63,0,0,0-.84.19l-.27,1.35a2.8,2.8,0,0,0-.05.34c0,.29.28.36.6.36a1.32,1.32,0,0,0,1.2-1.42c0-.69-.38-.82-.64-.82m4.79,2.72a6.4,6.4,0,0,1-1.56.16c-.49,0-.61-.21-.61-.63a8,8,0,0,1,.18-1.14l.52-2.48c.1-.51.13-.85.2-1.26a6.76,6.76,0,0,1,1.27-.13l.4,0-.74,3.5a6.16,6.16,0,0,0-.17,1c0,.35.23.36.91.36Z"
                      transform="translate(-178.25 -170.03)"/>
                <path class="cls-7"
                      d="M415.61,261.23l-.49,2.38c-.05.28-.17.8-.17,1,0,.35.33.41.83.43l-.37.58a10.33,10.33,0,0,1-1.56.15c-.51,0-.65-.28-.65-.62,0-.11.07-.45.13-.77l.74-3.48s-.36,0-.66,0a.8.8,0,0,0-.76.63l-.23.73c-.57,1.76-1.4,3.59-2.58,3.59a1.62,1.62,0,0,1-.76-.22,3.28,3.28,0,0,1,.73-1.27,1.23,1.23,0,0,0,.55.11c.23,0,.48,0,.73-.52a9.54,9.54,0,0,0,.71-2.47c0-.45-.23-.55-1-.55l.48-.59a17.72,17.72,0,0,1,2.14-.14c1.06,0,2.44.07,2.44.07s-.14.54-.24,1"
                      transform="translate(-178.25 -170.03)"/>
                <path class="cls-7"
                      d="M422.29,265.58a6,6,0,0,1-1.56.16c-.43,0-.55-.28-.55-.62,0-.06,0-.3,0-.47a3.18,3.18,0,0,1-2.24,1.09c-.7,0-1.16-.24-1.16-1.14a7.13,7.13,0,0,1,.15-1.15l.38-2a1.73,1.73,0,0,0,0-.32c0-.22-.08-.3-.29-.32l-.51-.06.39-.52a16.9,16.9,0,0,1,2.24-.15l-.62,3.16a4.86,4.86,0,0,0-.12.9.42.42,0,0,0,.45.47c.85,0,1.52-1.28,1.59-1.63l.31-1.53c.1-.51.14-.85.21-1.26a6.65,6.65,0,0,1,1.26-.13l.4,0-.74,3.5a6.16,6.16,0,0,0-.17,1c0,.35.23.36.91.36Z"
                      transform="translate(-178.25 -170.03)"/>
            </g>
            <g class="cls-8">
                <rect class="cls-9" x="97.92" y="14.99" width="35.87" height="35.87"/>
            </g>
            <g class="cls-10">
                <rect class="cls-11" x="135.24" y="15.84" width="36.59" height="34.17"/>
            </g>
            <g class="cls-12">
                <rect class="cls-13" x="171.86" y="15.84" width="34.68" height="34.17"/>
            </g>
            <g class="cls-14">
                <rect class="cls-15" x="208.55" y="14.99" width="35.87" height="35.02"/>
            </g>
            <g class="cls-16">
                <rect class="cls-17" x="99.34" y="16.41" width="33.04" height="33.03"/>
            </g>
            <g class="cls-18">
                <rect class="cls-19" x="136.65" y="17.25" width="32.91" height="31.34"/>
            </g>
            <g class="cls-20">
                <rect class="cls-21" x="173.28" y="17.25" width="31.84" height="31.34"/>
            </g>
            <g class="cls-22">
                <rect class="cls-23" x="209.97" y="16.41" width="33.04" height="32.18"/>
            </g>
            <g class="cls-24">
                <rect class="cls-25" x="102.4" y="16.97" width="26.9" height="2.5"/>
            </g>
            <g class="cls-26">
                <rect class="cls-27" x="213.04" y="16.97" width="26.9" height="2.5"/>
            </g>
            <g class="cls-28">
                <rect class="cls-29" x="108.7" y="40.7" width="14.32" height="1.62"/>
            </g>
            <g class="cls-30">
                <rect class="cls-31" x="137.22" y="17.82" width="9.19" height="0.57"/>
            </g>
            <g class="cls-32">
                <rect class="cls-33" x="173.84" y="17.82" width="9.19" height="0.57"/>
            </g>
            <g class="cls-34">
                <rect class="cls-35" x="183.03" y="27.79" width="12.33" height="0.57"/>
            </g>
            <g class="cls-36">
                <rect class="cls-37" x="195.36" y="17.82" width="9.19" height="0.57"/>
            </g>
            <g class="cls-38">
                <rect class="cls-39" x="157.56" y="17.82" width="9.5" height="0.57"/>
            </g>
            <g class="cls-40">
                <rect class="cls-41" x="146.98" y="27.79" width="5.71" height="0.57"/>
            </g>
            <g class="cls-42">
                <rect class="cls-43" x="218.08" y="33.49" width="16.83" height="0.57"/>
            </g>
        </g>
    </g>
</svg>
