<svg xmlns="http://www.w3.org/2000/svg" width="301" height="61" viewBox="0 0 301 61" fill="none">
<path fill-rule="evenodd" clip-rule="evenodd" d="M22.5716 9.88176C22.4723 11.2232 22.373 12.5645 22.275 13.9059C20.869 13.8123 19.4642 13.7174 18.0595 13.6225C18.1587 12.2811 18.2568 10.9397 18.3561 9.5983C19.7608 9.69321 21.1668 9.78685 22.5716 9.88176Z" fill="#00C4B5"/>
<path fill-rule="evenodd" clip-rule="evenodd" d="M22.2951 21.9759C22.956 21.7013 23.6169 21.428 24.2765 21.1534C24.5643 21.7836 24.8521 22.4151 25.1385 23.0453C24.4789 23.3199 23.818 23.5944 23.1571 23.8691C22.8694 23.2376 22.5828 22.6074 22.2951 21.9759Z" fill="#00C4B5"/>
<path fill-rule="evenodd" clip-rule="evenodd" d="M22.9358 16.7799C23.201 17.7543 23.4661 18.7287 23.7312 19.7031C22.7109 19.9562 21.6907 20.2093 20.6691 20.4624C20.404 19.488 20.139 18.5136 19.8751 17.5392C20.8954 17.2861 21.9156 17.033 22.9358 16.7799Z" fill="#00C4B5"/>
<path fill-rule="evenodd" clip-rule="evenodd" d="M14.4924 9.53754H9.90486V13.9174H14.4924V9.53754Z" fill="black"/>
<path fill-rule="evenodd" clip-rule="evenodd" d="M19.7319 23.049C20.3187 23.6792 20.9054 24.3107 21.491 24.9409C20.8313 25.5015 20.1704 26.0608 19.5095 26.6214C18.9227 25.99 18.336 25.3598 17.7504 24.7283C18.4114 24.169 19.071 23.6084 19.7319 23.049Z" fill="black"/>
<path fill-rule="evenodd" clip-rule="evenodd" d="M16.5605 18.2275C17.1649 19.2513 17.7692 20.2738 18.3736 21.2963C17.3031 21.8734 16.2313 22.4504 15.1595 23.0275C14.5551 22.005 13.9508 20.9825 13.3464 19.96C14.4182 19.3829 15.4887 18.8046 16.5605 18.2275Z" fill="black"/>
<path fill-rule="evenodd" clip-rule="evenodd" d="M21.393 27.1631L22.6708 28.24L23.7991 27.0188L22.5212 25.9431L21.393 27.1631Z" fill="black"/>
<path fill-rule="evenodd" clip-rule="evenodd" d="M9.9137 22.4416C10.8372 23.4578 11.7607 24.4727 12.6842 25.4876C11.6212 26.3696 10.5583 27.2517 9.49405 28.1337C8.57053 27.1175 7.64697 26.1026 6.72345 25.0877C7.7877 24.2057 8.85071 23.3237 9.9137 22.4416Z" fill="#00C4B5"/>
<path fill-rule="evenodd" clip-rule="evenodd" d="M18.6751 31.1797C18.939 30.5394 19.2029 29.9003 19.4668 29.26C20.1378 29.5118 20.8074 29.7636 21.4784 30.0167C21.2145 30.6558 20.9494 31.2961 20.6855 31.9364C20.0158 31.6846 19.3448 31.4315 18.6751 31.1797Z" fill="#00C4B5"/>
<path fill-rule="evenodd" clip-rule="evenodd" d="M15.2801 27.0732C16.1885 27.5832 17.0983 28.0932 18.0067 28.6032C17.4727 29.4713 16.9387 30.3394 16.4047 31.2075C15.495 30.6963 14.5865 30.1863 13.6768 29.6763C14.2121 28.8082 14.7461 27.9413 15.2801 27.0732Z" fill="#00C4B5"/>
<path fill-rule="evenodd" clip-rule="evenodd" d="M40.8221 9.5464C39.7592 10.4284 38.6961 11.3105 37.6318 12.1925C36.7083 11.1764 35.7848 10.1614 34.8613 9.14526C35.9255 8.26449 36.9886 7.38243 38.0516 6.5004C38.9751 7.51531 39.8986 8.53149 40.8221 9.5464Z" fill="#00C4B5"/>
<path fill-rule="evenodd" clip-rule="evenodd" d="M31.6711 17.9124C32.342 18.1643 33.0117 18.4161 33.6814 18.6679C33.4176 19.3083 33.1537 19.9486 32.8899 20.5889C32.2202 20.3358 31.5492 20.084 30.8795 19.8322C31.1433 19.1918 31.4072 18.5515 31.6711 17.9124Z" fill="#00C4B5"/>
<path fill-rule="evenodd" clip-rule="evenodd" d="M35.972 14.6703C35.438 15.5384 34.904 16.4066 34.37 17.2747C33.4603 16.7647 32.5518 16.2534 31.6421 15.7434C32.1774 14.8753 32.7115 14.0085 33.2455 13.1404C34.1552 13.6504 35.0636 14.1603 35.972 14.6703Z" fill="#00C4B5"/>
<path fill-rule="evenodd" clip-rule="evenodd" d="M53.9762 21.6317C52.5715 21.538 51.1667 21.4431 49.7619 21.3495C49.8599 20.0068 49.9592 18.6654 50.0585 17.324C51.4633 17.4189 52.868 17.5125 54.2728 17.6074C54.1748 18.9488 54.0755 20.2903 53.9762 21.6317Z" fill="#00C4B5"/>
<path fill-rule="evenodd" clip-rule="evenodd" d="M41.3108 21.3685C41.5973 21.9999 41.8851 22.6301 42.1728 23.2616C41.5119 23.535 40.851 23.8096 40.19 24.0842C39.9036 23.454 39.6158 22.8225 39.328 22.1923C39.989 21.9177 40.6499 21.6431 41.3108 21.3685Z" fill="#00C4B5"/>
<path fill-rule="evenodd" clip-rule="evenodd" d="M46.7528 21.9809C45.7326 22.234 44.711 22.4871 43.6908 22.7402C43.4256 21.7658 43.1605 20.7914 42.8966 19.817C43.9169 19.5639 44.9372 19.3108 45.9575 19.0577C46.2226 20.0321 46.4877 21.0065 46.7528 21.9809Z" fill="#00C4B5"/>
<path fill-rule="evenodd" clip-rule="evenodd" d="M54.3281 39.0598C53.4033 38.0436 52.481 37.0287 51.5575 36.0138C52.6205 35.1318 53.6836 34.2497 54.7478 33.3677C55.6713 34.3839 56.5948 35.3988 57.5184 36.4137C56.4541 37.2958 55.391 38.1778 54.3281 39.0598Z" fill="#00C4B5"/>
<path fill-rule="evenodd" clip-rule="evenodd" d="M45.5666 30.3217C45.3027 30.9608 45.0389 31.6011 44.775 32.2414C44.104 31.9896 43.4344 31.7378 42.7634 31.4847C43.0273 30.8456 43.2911 30.2053 43.555 29.5649C44.2259 29.8168 44.8956 30.0699 45.5666 30.3217Z" fill="#00C4B5"/>
<path fill-rule="evenodd" clip-rule="evenodd" d="M48.9616 34.4282C48.0519 33.9182 47.1435 33.4082 46.2351 32.8982C46.7691 32.0301 47.3031 31.1619 47.8371 30.2938C48.7468 30.8038 49.6551 31.3151 50.5636 31.8251C50.0296 32.6932 49.4956 33.56 48.9616 34.4282Z" fill="#00C4B5"/>
<path fill-rule="evenodd" clip-rule="evenodd" d="M41.6702 51.6196C41.7695 50.2782 41.8674 48.9369 41.9667 47.5955C43.3714 47.6891 44.7763 47.784 46.1823 47.8789C46.083 49.2203 45.9837 50.5617 45.8857 51.9031C44.4797 51.8082 43.075 51.7133 41.6702 51.6196Z" fill="#00C4B5"/>
<path fill-rule="evenodd" clip-rule="evenodd" d="M41.9467 39.5255C41.2858 39.8001 40.6248 40.0735 39.9639 40.3481C39.6774 39.7179 39.3896 39.0864 39.1019 38.4562C39.7628 38.1816 40.4238 37.907 41.0847 37.6324C41.3712 38.2638 41.6589 38.8941 41.9467 39.5255Z" fill="#00C4B5"/>
<path fill-rule="evenodd" clip-rule="evenodd" d="M41.3059 44.7215C41.0407 43.7471 40.7756 42.7727 40.5105 41.7983C41.5308 41.5452 42.5511 41.2921 43.5713 41.039C43.8365 42.0134 44.1016 42.9878 44.3667 43.9623C43.3464 44.2154 42.3261 44.4685 41.3059 44.7215Z" fill="#00C4B5"/>
<path fill-rule="evenodd" clip-rule="evenodd" d="M23.4183 51.955C24.4826 51.073 25.5457 50.1909 26.6086 49.3089C27.5322 50.325 28.4557 51.34 29.3792 52.3549C28.3162 53.2369 27.2532 54.1189 26.189 55.001C25.2655 53.9861 24.3419 52.9699 23.4183 51.955Z" fill="#00C4B5"/>
<path fill-rule="evenodd" clip-rule="evenodd" d="M32.5707 43.5889C31.8998 43.3371 31.23 43.0853 30.559 42.8335C30.8229 42.1931 31.0881 41.5528 31.3519 40.9125C32.0216 41.1656 32.6926 41.4174 33.3623 41.6692C33.0984 42.3096 32.8346 42.9486 32.5707 43.5889Z" fill="#00C4B5"/>
<path fill-rule="evenodd" clip-rule="evenodd" d="M28.2685 46.8311C28.8037 45.963 29.3377 45.0949 29.8717 44.2267C30.7802 44.7367 31.6899 45.2467 32.5983 45.758C32.0643 46.6248 31.5303 47.4929 30.9963 48.361C30.0866 47.8511 29.1782 47.3411 28.2685 46.8311Z" fill="#00C4B5"/>
<path fill-rule="evenodd" clip-rule="evenodd" d="M10.2654 39.8685C11.6702 39.9634 13.075 40.0583 14.4797 40.1519C14.3817 41.4933 14.2824 42.8347 14.1831 44.1774C12.7784 44.0825 11.3737 43.9876 9.96898 43.894C10.067 42.5525 10.1662 41.2111 10.2654 39.8685Z" fill="#00C4B5"/>
<path fill-rule="evenodd" clip-rule="evenodd" d="M22.9309 40.1329C22.6444 39.5015 22.3567 38.8713 22.069 38.2398C22.7299 37.9652 23.3907 37.6918 24.0516 37.4172C24.3381 38.0474 24.6259 38.6789 24.9136 39.3091C24.2527 39.5837 23.5918 39.8583 22.9309 40.1329Z" fill="#00C4B5"/>
<path fill-rule="evenodd" clip-rule="evenodd" d="M17.489 39.5205C18.5093 39.2674 19.5296 39.0143 20.5511 38.7612C20.8149 39.7356 21.08 40.71 21.3451 41.6844C20.3248 41.9375 19.3046 42.1906 18.2844 42.4437C18.0192 41.4693 17.7541 40.4949 17.489 39.5205Z" fill="#00C4B5"/>
<path fill-rule="evenodd" clip-rule="evenodd" d="M28.8766 57.6535L32.1209 60.7501L35.3651 57.6535L32.1209 54.5556L28.8766 57.6535Z" fill="black"/>
<path fill-rule="evenodd" clip-rule="evenodd" d="M35.1766 44.5608C35.2294 43.7193 35.2822 42.8777 35.335 42.0349C36.2171 42.0855 37.0978 42.1362 37.9799 42.1855C37.9271 43.0283 37.8756 43.8699 37.8228 44.7114C36.9408 44.6621 36.0587 44.6114 35.1766 44.5608Z" fill="black"/>
<path fill-rule="evenodd" clip-rule="evenodd" d="M33.8498 50.1112C34.1803 48.9799 34.5107 47.8486 34.8399 46.7172C36.0248 47.0323 37.2097 47.3474 38.3945 47.6625C38.0653 48.7939 37.7349 49.9252 37.4044 51.0565C36.2196 50.7414 35.0347 50.4263 33.8498 50.1112Z" fill="black"/>
<path fill-rule="evenodd" clip-rule="evenodd" d="M37.0501 40.5303L36.9433 38.9067L35.242 39.0079L35.3488 40.6315L37.0501 40.5303Z" fill="black"/>
<path fill-rule="evenodd" clip-rule="evenodd" d="M49.7495 51.9638H54.3369V47.584H49.7495V51.9638Z" fill="black"/>
<path fill-rule="evenodd" clip-rule="evenodd" d="M44.5099 38.4524C43.9231 37.8222 43.3364 37.1907 42.7496 36.5605C43.4105 35.9999 44.0715 35.4405 44.7324 34.8799C45.3192 35.5114 45.9047 36.1416 46.4915 36.7731C45.8306 37.3325 45.1696 37.8931 44.5099 38.4524Z" fill="black"/>
<path fill-rule="evenodd" clip-rule="evenodd" d="M47.6813 43.2738C47.0769 42.2501 46.4726 41.2276 45.8682 40.2051C46.9388 39.628 48.0105 39.051 49.081 38.4739C49.6854 39.4964 50.2898 40.5189 50.8954 41.5414C49.8236 42.1185 48.7518 42.6955 47.6813 43.2738Z" fill="black"/>
<path fill-rule="evenodd" clip-rule="evenodd" d="M42.8489 34.3383L41.571 33.2614L40.4426 34.4813L41.7205 35.5582L42.8489 34.3383Z" fill="black"/>
<path fill-rule="evenodd" clip-rule="evenodd" d="M60.2951 33.8473L63.5394 30.7507L60.2951 27.6528L57.0522 30.7507L60.2951 33.8473Z" fill="black"/>
<path fill-rule="evenodd" clip-rule="evenodd" d="M46.5843 27.8325C45.7023 27.7819 44.8215 27.7325 43.9395 27.6819C43.991 26.8404 44.0437 25.9976 44.0965 25.156C44.9786 25.2054 45.8607 25.256 46.7428 25.3066C46.69 26.1482 46.6371 26.9897 46.5843 27.8325Z" fill="black"/>
<path fill-rule="evenodd" clip-rule="evenodd" d="M52.397 29.0992C51.2121 28.7841 50.0272 28.469 48.8424 28.1539C49.1728 27.0226 49.5033 25.8913 49.8325 24.7599C51.0173 25.075 52.2022 25.3901 53.3871 25.7052C53.0579 26.8366 52.7274 27.9679 52.397 29.0992Z" fill="black"/>
<path fill-rule="evenodd" clip-rule="evenodd" d="M42.3638 26.0444L40.6625 26.1456L40.768 27.7705L42.4693 27.6693L42.3638 26.0444Z" fill="black"/>
<path fill-rule="evenodd" clip-rule="evenodd" d="M35.3639 3.84794L32.1209 0.750061L28.8766 3.84794L32.1209 6.94456L35.3639 3.84794Z" fill="black"/>
<path fill-rule="evenodd" clip-rule="evenodd" d="M29.0651 16.9393C29.0123 17.7821 28.9596 18.6237 28.9068 19.4665C28.0247 19.4159 27.1427 19.3652 26.2619 19.3159C26.3134 18.4731 26.3662 17.6315 26.419 16.79C27.301 16.8393 28.183 16.89 29.0651 16.9393Z" fill="black"/>
<path fill-rule="evenodd" clip-rule="evenodd" d="M30.3919 11.3902C30.0614 12.5215 29.731 13.6529 29.4018 14.7842C28.2169 14.4691 27.032 14.154 25.8472 13.8389C26.1764 12.7076 26.5069 11.5762 26.8374 10.4449C28.0222 10.76 29.207 11.0751 30.3919 11.3902Z" fill="black"/>
<path fill-rule="evenodd" clip-rule="evenodd" d="M27.1916 20.9712L27.2985 22.5948L28.9998 22.4935L28.8929 20.8687L27.1916 20.9712Z" fill="black"/>
<path fill-rule="evenodd" clip-rule="evenodd" d="M3.94531 27.6541L0.702301 30.7507L3.94531 33.8486L7.18955 30.7507L3.94531 27.6541Z" fill="black"/>
<path fill-rule="evenodd" clip-rule="evenodd" d="M17.6574 33.6689C18.5383 33.7195 19.4203 33.7688 20.3023 33.8195C20.2496 34.661 20.1981 35.5038 20.1453 36.3454C19.2632 36.2947 18.3812 36.2454 17.4992 36.1948C17.5519 35.3532 17.6047 34.5104 17.6574 33.6689Z" fill="black"/>
<path fill-rule="evenodd" clip-rule="evenodd" d="M11.8449 32.4022C13.0298 32.7173 14.2146 33.0324 15.3995 33.3475C15.069 34.4788 14.7386 35.6101 14.4094 36.7415C13.2245 36.4264 12.0397 36.1112 10.8548 35.7961C11.184 34.6648 11.5144 33.5335 11.8449 32.4022Z" fill="black"/>
<path fill-rule="evenodd" clip-rule="evenodd" d="M21.8779 35.457L23.5792 35.3557L23.4737 33.7309L21.7724 33.8321L21.8779 35.457Z" fill="black"/>
<path fill-rule="evenodd" clip-rule="evenodd" d="M54.3369 13.9174V9.53754H49.7495V13.9174H54.3369Z" fill="black"/>
<path fill-rule="evenodd" clip-rule="evenodd" d="M40.1876 18.921C39.5267 19.4816 38.8657 20.041 38.2048 20.6016C37.618 19.9701 37.0325 19.3399 36.4457 18.7084C37.1066 18.1491 37.7676 17.5885 38.4285 17.0291C39.014 17.6594 39.6008 18.2908 40.1876 18.921Z" fill="black"/>
<path fill-rule="evenodd" clip-rule="evenodd" d="M45.2362 15.8928C44.1644 16.4698 43.0926 17.0469 42.022 17.6239C41.4177 16.6014 40.8133 15.5789 40.209 14.5552C41.2795 13.9781 42.3512 13.4011 43.4217 12.824C44.0261 13.8465 44.6305 14.8703 45.2362 15.8928Z" fill="black"/>
<path fill-rule="evenodd" clip-rule="evenodd" d="M35.8777 20.5067L34.7507 21.7279L36.0285 22.8048L37.1556 21.5836L35.8777 20.5067Z" fill="black"/>
<path fill-rule="evenodd" clip-rule="evenodd" d="M9.90486 47.584V51.9638H14.4924V47.584H9.90486Z" fill="black"/>
<path fill-rule="evenodd" clip-rule="evenodd" d="M24.0542 42.5803C24.7151 42.0197 25.3761 41.4604 26.037 40.8998C26.6225 41.5313 27.2093 42.1615 27.7961 42.7929C27.1352 43.3523 26.4742 43.9129 25.8133 44.4722C25.2278 43.842 24.641 43.2105 24.0542 42.5803Z" fill="black"/>
<path fill-rule="evenodd" clip-rule="evenodd" d="M19.0056 45.6086C20.0774 45.0316 21.148 44.4545 22.2198 43.8775C22.8241 44.9 23.4285 45.9225 24.0328 46.945C22.9623 47.522 21.8905 48.1004 20.8187 48.6774C20.2144 47.6536 19.61 46.6311 19.0056 45.6086Z" fill="black"/>
<path fill-rule="evenodd" clip-rule="evenodd" d="M28.364 40.9935L29.491 39.7736L28.2132 38.6967L27.0849 39.9166L28.364 40.9935Z" fill="black"/>
<path d="M86.9919 19.6955H95.9406V15.465H73.4381V19.6955H82.3856V37.664H86.9919V19.6955ZM235.566 29.1195H242.966C241.94 27.1454 240.858 25.0738 239.247 21.9987C237.621 25.1472 236.581 27.1491 235.566 29.1195ZM245.165 33.35H233.401C232.785 34.5623 232.081 35.953 231.219 37.664H226.132L237.537 15.465H241.003L252.494 37.664H247.406L245.165 33.35ZM115.24 23.2553V37.664H119.847V15.465H116.645L104.845 29.8724V15.465H100.239V37.664H103.398L115.24 23.2553ZM145.728 37.664H150.333V15.465H146.779L138.271 26.815L129.804 15.465H126.251V37.664H130.813V23.926L138.271 34.1864L145.728 23.926V37.664ZM156.737 37.664H176.301V33.4335H161.343V29.1195H169.896V24.889H161.343V19.6955H175.424V15.465H156.737V37.664ZM185.688 24.889V19.6955H194.066C195.857 19.6955 197.181 20.2434 197.181 22.1657C197.181 24.193 195.769 24.889 193.848 24.889H185.688ZM181.039 15.465V37.664H185.688V29.1195H194.637C199.09 29.1195 201.918 26.4417 201.918 22.2075C201.918 17.7188 198.761 15.465 194.242 15.465H181.039ZM219.684 37.664H224.728L214.2 15.465H210.735L200.296 37.664H205.34L212.446 21.8316L219.684 37.664ZM269.821 23.2553V37.664H274.426V15.465H271.225L259.425 29.8724V15.465H254.819V37.664H257.978L269.821 23.2553ZM296.052 37.664H300.702V15.465H296.052V24.889H285.481V15.465H280.831V37.664H285.481V29.1195H296.052V37.664Z" fill="black"/>
<path fill-rule="evenodd" clip-rule="evenodd" d="M262.548 14.0907L264.924 16.3597L267.3 14.0907L264.924 11.8217L262.548 14.0907Z" fill="black"/>
<path d="M77.1775 44.9228H74.3742V49.8025H73.3414V44.0648H78.2153V49.8025H77.1775V44.9228ZM79.6741 44.0648H80.7057V44.8532H80.7283C80.7961 44.7216 80.8816 44.595 80.9834 44.4786C81.0864 44.3596 81.2096 44.2571 81.3553 44.1686C81.4985 44.0838 81.6657 44.0141 81.8529 43.9648C82.0426 43.9129 82.2587 43.8889 82.5025 43.8889C82.8241 43.8889 83.132 43.9483 83.4273 44.0648C83.7213 44.1837 83.9838 44.3596 84.2113 44.595C84.4399 44.8304 84.6209 45.1278 84.7579 45.4821C84.8911 45.839 84.9589 46.2515 84.9589 46.721C84.9589 47.312 84.8948 47.8131 84.7704 48.2244C84.6448 48.637 84.4689 48.9736 84.239 49.233C84.0065 49.4949 83.7288 49.6848 83.4034 49.8025C83.0804 49.9189 82.716 49.9796 82.3165 49.9796C82.1192 49.9796 81.9332 49.9543 81.7611 49.905C81.589 49.8531 81.4357 49.7898 81.2975 49.7088C81.1618 49.6278 81.045 49.5392 80.9469 49.4405C80.8489 49.3431 80.7773 49.2469 80.7283 49.1545H80.7057V52.0613H79.6741V44.0648ZM80.6844 46.9627C80.6844 47.274 80.7158 47.56 80.7786 47.822C80.8439 48.0852 80.9419 48.3143 81.0738 48.5053C81.207 48.6977 81.3716 48.8495 81.5726 48.9596C81.7724 49.0672 82.0099 49.1216 82.2838 49.1216C82.5665 49.1216 82.8116 49.0672 83.0214 48.9596C83.2275 48.8495 83.3996 48.6977 83.534 48.5053C83.6685 48.3143 83.7678 48.0852 83.8306 47.822C83.8934 47.56 83.9261 47.274 83.9261 46.9627C83.9261 46.6388 83.8934 46.3388 83.8306 46.0693C83.7678 45.7985 83.6685 45.5644 83.534 45.367C83.3996 45.1708 83.2275 45.0177 83.0214 44.9101C82.8116 44.8 82.5665 44.7456 82.2838 44.7456C82.0099 44.7456 81.7724 44.8 81.5726 44.9101C81.3716 45.0177 81.207 45.1708 81.0738 45.367C80.9419 45.5644 80.8439 45.7985 80.7786 46.0693C80.7158 46.3388 80.6844 46.6388 80.6844 46.9627ZM90.3153 46.926C90.3153 46.6084 90.2776 46.316 90.2035 46.0503C90.1281 45.7833 90.0176 45.5555 89.868 45.3606C89.716 45.1695 89.5325 45.0177 89.3139 44.9101C89.0965 44.8 88.8415 44.7456 88.5538 44.7456C88.2673 44.7456 88.0147 44.8 87.7961 44.9101C87.5799 45.0177 87.3977 45.1695 87.247 45.3606C87.0974 45.5555 86.9856 45.7833 86.9115 46.0503C86.8373 46.316 86.7985 46.6084 86.7985 46.926C86.7985 47.2475 86.8373 47.5423 86.9115 47.8131C86.9856 48.0814 87.0974 48.3143 87.247 48.5053C87.3977 48.6977 87.5799 48.8495 87.7961 48.9596C88.0147 49.0672 88.2673 49.1216 88.5538 49.1216C88.8415 49.1216 89.0965 49.0672 89.3139 48.9596C89.5325 48.8495 89.716 48.6977 89.868 48.5053C90.0176 48.3143 90.1281 48.0814 90.2035 47.8131C90.2776 47.5423 90.3153 47.2475 90.3153 46.926ZM91.3482 46.926C91.3482 47.398 91.2854 47.822 91.1559 48.1991C91.0303 48.5749 90.8468 48.8951 90.6068 49.1583C90.3681 49.4241 90.074 49.6265 89.7298 49.767C89.383 49.9075 88.9923 49.9796 88.5538 49.9796C88.1165 49.9796 87.7257 49.9075 87.3827 49.767C87.0384 49.6265 86.7469 49.4241 86.5069 49.1583C86.2682 48.8951 86.0847 48.5749 85.9578 48.1991C85.8297 47.822 85.7669 47.398 85.7669 46.926C85.7669 46.4616 85.8297 46.0414 85.9578 45.6669C86.0847 45.2923 86.2682 44.9721 86.5069 44.7089C86.7469 44.4432 87.0384 44.2407 87.3827 44.1002C87.7257 43.9585 88.1165 43.8889 88.5538 43.8889C88.9923 43.8889 89.383 43.9585 89.7298 44.1002C90.074 44.2407 90.3681 44.4432 90.6068 44.7089C90.8468 44.9721 91.0303 45.2923 91.1559 45.6669C91.2854 46.0414 91.3482 46.4616 91.3482 46.926ZM92.5105 44.0648H93.5421V48.4636H93.5634L96.5136 44.0648H97.6972V49.8025H96.6594V45.4049H96.638L93.6941 49.8025H92.5105V44.0648ZM100.767 46.4869H101.287C101.426 46.4869 101.571 46.4704 101.721 46.4375C101.869 46.4072 102.006 46.3553 102.13 46.2857C102.252 46.2174 102.355 46.125 102.437 46.0161C102.516 45.9048 102.557 45.7706 102.557 45.6137C102.557 45.4986 102.53 45.3885 102.479 45.2847C102.43 45.1784 102.355 45.0847 102.256 45.005C102.157 44.9266 102.032 44.862 101.883 44.8139C101.733 44.7684 101.56 44.7456 101.362 44.7456C101.257 44.7456 101.132 44.7595 100.99 44.7886C100.848 44.8165 100.709 44.8696 100.573 44.9455C100.438 45.0227 100.314 45.1328 100.209 45.2733C100.102 45.4138 100.033 45.5973 100.004 45.8213H99.0392C99.0643 45.5656 99.1196 45.3391 99.2025 45.1455C99.2842 44.9493 99.386 44.781 99.5104 44.6393C99.6323 44.4963 99.7729 44.3761 99.9275 44.2786C100.083 44.1837 100.244 44.1066 100.41 44.0509C100.577 43.9914 100.743 43.9522 100.913 43.9256C101.081 43.9003 101.242 43.8889 101.394 43.8889C101.664 43.8889 101.929 43.9218 102.19 43.9876C102.453 44.0534 102.687 44.1546 102.895 44.2875C103.103 44.4216 103.271 44.5899 103.397 44.795C103.524 44.9974 103.589 45.2354 103.589 45.5062C103.589 45.6808 103.561 45.8364 103.51 45.9693C103.457 46.1035 103.389 46.2199 103.305 46.3211C103.221 46.4198 103.125 46.5059 103.022 46.5755C102.917 46.6451 102.814 46.7033 102.713 46.7488V46.7767C102.817 46.7931 102.934 46.8311 103.06 46.8855C103.188 46.9412 103.305 47.0196 103.414 47.1222C103.522 47.2221 103.614 47.3537 103.687 47.5132C103.758 47.6701 103.795 47.8637 103.795 48.0928C103.795 48.4142 103.723 48.6939 103.579 48.928C103.436 49.1634 103.248 49.3595 103.016 49.5152C102.785 49.6708 102.522 49.7873 102.231 49.8645C101.938 49.9404 101.645 49.9796 101.35 49.9796C100.969 49.9796 100.622 49.9315 100.314 49.8404C100.007 49.7468 99.7403 49.6139 99.5166 49.443C99.2917 49.2722 99.112 49.0672 98.9801 48.828C98.8481 48.5876 98.7678 48.3231 98.7402 48.0346H99.778C99.8056 48.2447 99.8684 48.4193 99.9702 48.5585C100.071 48.6977 100.191 48.8091 100.333 48.8913C100.478 48.9736 100.635 49.0318 100.808 49.0685C100.983 49.1039 101.159 49.1216 101.339 49.1216C101.814 49.1216 102.17 49.0305 102.408 48.8495C102.645 48.666 102.763 48.4218 102.763 48.1143C102.763 47.9827 102.742 47.8637 102.698 47.7612C102.657 47.6575 102.584 47.5702 102.484 47.4968C102.383 47.4234 102.248 47.3664 102.082 47.3297C101.915 47.2917 101.708 47.274 101.462 47.274C101.414 47.274 101.359 47.2753 101.297 47.2778C101.236 47.2791 101.173 47.2803 101.111 47.2841C101.049 47.2879 100.988 47.2917 100.929 47.2968C100.87 47.3031 100.815 47.3082 100.767 47.312V46.4869ZM104.957 44.0648H107.514C108.247 44.0648 108.797 44.1964 109.16 44.4558C109.526 44.7178 109.708 45.0961 109.708 45.5909C109.708 45.8567 109.641 46.0794 109.506 46.2604C109.371 46.4439 109.193 46.6046 108.973 46.7438C109.291 46.8589 109.543 47.0209 109.731 47.2373C109.917 47.4512 110.011 47.7271 110.011 48.0675C110.011 48.3345 109.964 48.5749 109.871 48.7888C109.777 49.0027 109.635 49.1862 109.444 49.3355C109.254 49.4861 109.011 49.6012 108.718 49.681C108.425 49.762 108.077 49.8025 107.676 49.8025H104.957V44.0648ZM105.99 49.0141H107.559C107.832 49.0141 108.059 48.9938 108.242 48.9533C108.424 48.9116 108.567 48.8508 108.676 48.7723C108.786 48.6964 108.861 48.6002 108.906 48.4889C108.95 48.38 108.973 48.2535 108.973 48.1143C108.973 47.9751 108.95 47.8498 108.906 47.7385C108.861 47.6246 108.786 47.5296 108.676 47.4525C108.567 47.3753 108.424 47.3171 108.242 47.2778C108.059 47.2348 107.832 47.2146 107.559 47.2146H105.99V49.0141ZM105.99 46.4907H107.548C107.896 46.4907 108.17 46.4249 108.374 46.2933C108.575 46.1617 108.676 45.9554 108.676 45.677C108.676 45.5201 108.648 45.3885 108.592 45.2847C108.536 45.1784 108.462 45.0949 108.367 45.0303C108.274 44.9645 108.169 44.9202 108.05 44.8937C107.933 44.8658 107.812 44.8532 107.688 44.8532H105.99V46.4907ZM115.446 46.926C115.446 46.6084 115.409 46.316 115.333 46.0503C115.259 45.7833 115.147 45.5555 114.998 45.3606C114.847 45.1695 114.664 45.0177 114.445 44.9101C114.226 44.8 113.973 44.7456 113.685 44.7456C113.398 44.7456 113.144 44.8 112.927 44.9101C112.711 45.0177 112.529 45.1695 112.377 45.3606C112.227 45.5555 112.117 45.7833 112.043 46.0503C111.967 46.316 111.93 46.6084 111.93 46.926C111.93 47.2475 111.967 47.5423 112.043 47.8131C112.117 48.0814 112.227 48.3143 112.377 48.5053C112.529 48.6977 112.711 48.8495 112.927 48.9596C113.144 49.0672 113.398 49.1216 113.685 49.1216C113.973 49.1216 114.226 49.0672 114.445 48.9596C114.664 48.8495 114.847 48.6977 114.998 48.5053C115.147 48.3143 115.259 48.0814 115.333 47.8131C115.409 47.5423 115.446 47.2475 115.446 46.926ZM116.479 46.926C116.479 47.398 116.415 47.822 116.287 48.1991C116.161 48.5749 115.977 48.8951 115.738 49.1583C115.498 49.4241 115.205 49.6265 114.861 49.767C114.514 49.9075 114.123 49.9796 113.685 49.9796C113.246 49.9796 112.856 49.9075 112.513 49.767C112.168 49.6265 111.878 49.4241 111.638 49.1583C111.399 48.8951 111.215 48.5749 111.089 48.1991C110.961 47.822 110.897 47.398 110.897 46.926C110.897 46.4616 110.961 46.0414 111.089 45.6669C111.215 45.2923 111.399 44.9721 111.638 44.7089C111.878 44.4432 112.168 44.2407 112.513 44.1002C112.856 43.9585 113.246 43.8889 113.685 43.8889C114.123 43.8889 114.514 43.9585 114.861 44.1002C115.205 44.2407 115.498 44.4432 115.738 44.7089C115.977 44.9721 116.161 45.2923 116.287 45.6669C116.415 46.0414 116.479 46.4616 116.479 46.926ZM122.65 49.8025H118.005V51.2058H117.04V48.9445H117.83C117.995 48.5585 118.125 48.1662 118.223 47.7638C118.32 47.3626 118.395 46.9577 118.447 46.5477C118.501 46.1402 118.534 45.7264 118.549 45.3138C118.564 44.8987 118.571 44.4836 118.571 44.0648H122.767V48.9445H123.615V51.2058H122.65V49.8025ZM121.734 48.9445V44.9228H119.558C119.533 45.248 119.506 45.5808 119.477 45.9237C119.448 46.2667 119.412 46.6097 119.364 46.9551C119.318 47.2993 119.257 47.6398 119.181 47.9751C119.104 48.3117 119.002 48.6331 118.879 48.9445H121.734ZM129.324 47.784C129.309 47.922 129.28 48.0738 129.239 48.2383C129.194 48.4016 129.133 48.5661 129.05 48.7293C128.969 48.89 128.863 49.047 128.733 49.1963C128.604 49.3469 128.447 49.4797 128.261 49.5949C128.077 49.7126 127.859 49.8037 127.609 49.8746C127.358 49.9442 127.073 49.9796 126.751 49.9796C126.575 49.9796 126.389 49.9568 126.196 49.9176C126.001 49.8771 125.811 49.8075 125.625 49.7101C125.439 49.6139 125.265 49.4911 125.099 49.3393C124.932 49.1874 124.786 48.9989 124.66 48.7723C124.536 48.5483 124.437 48.2864 124.361 47.989C124.285 47.6904 124.248 47.3487 124.248 46.9627C124.248 46.4869 124.32 46.0617 124.46 45.6808C124.602 45.3011 124.795 44.9772 125.032 44.714C125.27 44.4482 125.545 44.2457 125.86 44.1027C126.177 43.961 126.51 43.8889 126.857 43.8889C127.171 43.8889 127.448 43.9205 127.69 43.9851C127.931 44.0509 128.141 44.1344 128.322 44.242C128.501 44.3508 128.652 44.4723 128.775 44.6153C128.9 44.7557 128.999 44.9038 129.076 45.0595C129.152 45.2151 129.21 45.372 129.25 45.5327C129.288 45.6935 129.313 45.8478 129.324 45.9934H128.359C128.308 45.6049 128.166 45.2986 127.936 45.0772C127.706 44.857 127.384 44.7456 126.97 44.7456C126.685 44.7456 126.437 44.8013 126.226 44.9114C126.014 45.0227 125.84 45.1771 125.698 45.3758C125.559 45.5732 125.453 45.8124 125.384 46.0921C125.315 46.3743 125.281 46.6818 125.281 47.0171C125.281 47.3955 125.319 47.722 125.394 47.9941C125.468 48.2687 125.574 48.4927 125.713 48.6686C125.851 48.8458 126.02 48.9761 126.221 49.0596C126.419 49.1444 126.648 49.1861 126.902 49.1861C127.08 49.1861 127.251 49.1545 127.412 49.0925C127.573 49.0305 127.716 48.9394 127.844 48.8179C127.971 48.7002 128.08 48.5509 128.17 48.3775C128.26 48.2029 128.323 48.0042 128.359 47.784H129.324ZM131.944 44.9228H129.873V44.0648H135.048V44.9228H132.978V49.8025H131.944V44.9228ZM136.091 44.0648H138.648C139.38 44.0648 139.93 44.1964 140.294 44.4558C140.659 44.7178 140.841 45.0961 140.841 45.5909C140.841 45.8567 140.775 46.0794 140.638 46.2604C140.505 46.4439 140.326 46.6046 140.106 46.7438C140.424 46.8589 140.677 47.0209 140.864 47.2373C141.05 47.4512 141.144 47.7271 141.144 48.0675C141.144 48.3345 141.098 48.5749 141.005 48.7888C140.91 49.0027 140.769 49.1862 140.578 49.3355C140.388 49.4861 140.144 49.6012 139.851 49.681C139.558 49.762 139.21 49.8025 138.81 49.8025H136.091V44.0648ZM137.123 49.0141H138.693C138.965 49.0141 139.193 48.9938 139.375 48.9533C139.556 48.9116 139.7 48.8508 139.81 48.7723C139.919 48.6964 139.995 48.6002 140.04 48.4889C140.082 48.38 140.106 48.2535 140.106 48.1143C140.106 47.9751 140.082 47.8498 140.04 47.7385C139.995 47.6246 139.919 47.5296 139.81 47.4525C139.7 47.3753 139.556 47.3171 139.375 47.2778C139.193 47.2348 138.965 47.2146 138.693 47.2146H137.123V49.0141ZM137.123 46.4907H138.682C139.03 46.4907 139.303 46.4249 139.507 46.2933C139.708 46.1617 139.81 45.9554 139.81 45.677C139.81 45.5201 139.781 45.3885 139.726 45.2847C139.669 45.1784 139.595 45.0949 139.501 45.0303C139.408 44.9645 139.302 44.9202 139.183 44.8937C139.066 44.8658 138.945 44.8532 138.821 44.8532H137.123V46.4907ZM147.5 47.97C147.458 48.2206 147.369 48.4661 147.231 48.7028C147.091 48.9432 146.912 49.157 146.687 49.3469C146.462 49.5354 146.197 49.6886 145.892 49.8037C145.588 49.9214 145.252 49.9796 144.88 49.9796C144.475 49.9796 144.102 49.9151 143.761 49.7898C143.418 49.6607 143.124 49.4709 142.874 49.2153C142.626 48.9609 142.431 48.6395 142.289 48.2535C142.146 47.8675 142.074 47.4145 142.074 46.8931C142.074 46.5439 142.114 46.2262 142.195 45.9427C142.275 45.6593 142.384 45.4049 142.52 45.1822C142.658 44.9595 142.815 44.7671 142.995 44.6039C143.176 44.4419 143.364 44.3078 143.564 44.2015C143.765 44.0964 143.97 44.0179 144.179 43.9661C144.387 43.9154 144.591 43.8889 144.784 43.8889C145.195 43.8889 145.573 43.9483 145.911 44.0648C146.252 44.1837 146.546 44.3634 146.791 44.6039C147.036 44.8456 147.226 45.1467 147.363 45.5087C147.5 45.8719 147.567 46.2971 147.567 46.7868V47.2791H143.176C143.18 47.5575 143.22 47.8106 143.298 48.0371C143.377 48.2649 143.49 48.4585 143.635 48.6192C143.78 48.7787 143.956 48.9027 144.165 48.99C144.372 49.0786 144.607 49.1216 144.868 49.1216C145.135 49.1216 145.358 49.0849 145.542 49.0141C145.725 48.9432 145.879 48.8508 146.002 48.742C146.126 48.6306 146.225 48.5079 146.302 48.3725C146.379 48.2371 146.444 48.1017 146.496 47.97H147.5ZM146.53 46.4907C146.522 46.2135 146.478 45.9643 146.398 45.7466C146.317 45.5289 146.204 45.3467 146.061 45.1986C145.918 45.0506 145.743 44.9367 145.542 44.8608C145.34 44.7836 145.115 44.7456 144.868 44.7456C144.632 44.7456 144.416 44.7886 144.219 44.8772C144.02 44.9645 143.846 45.0848 143.696 45.2404C143.547 45.3961 143.426 45.5808 143.338 45.7922C143.248 46.0048 143.192 46.2389 143.176 46.4907H146.53ZM148.774 44.0648H149.807V46.3793H152.61V44.0648H153.648V49.8025H152.61V47.2373H149.807V49.8025H148.774V44.0648ZM155.163 44.0648H156.196V46.3793H158.999V44.0648H160.037V49.8025H158.999V47.2373H156.196V49.8025H155.163V44.0648ZM165.748 46.926C165.748 46.6084 165.71 46.316 165.634 46.0503C165.56 45.7833 165.45 45.5555 165.3 45.3606C165.148 45.1695 164.965 45.0177 164.747 44.9101C164.529 44.8 164.274 44.7456 163.986 44.7456C163.699 44.7456 163.447 44.8 163.228 44.9101C163.012 45.0177 162.83 45.1695 162.679 45.3606C162.53 45.5555 162.418 45.7833 162.344 46.0503C162.27 46.316 162.231 46.6084 162.231 46.926C162.231 47.2475 162.27 47.5423 162.344 47.8131C162.418 48.0814 162.53 48.3143 162.679 48.5053C162.83 48.6977 163.012 48.8495 163.228 48.9596C163.447 49.0672 163.699 49.1216 163.986 49.1216C164.274 49.1216 164.529 49.0672 164.747 48.9596C164.965 48.8495 165.148 48.6977 165.3 48.5053C165.45 48.3143 165.56 48.0814 165.634 47.8131C165.71 47.5423 165.748 47.2475 165.748 46.926ZM166.78 46.926C166.78 47.398 166.716 47.822 166.588 48.1991C166.463 48.5749 166.279 48.8951 166.039 49.1583C165.8 49.4241 165.506 49.6265 165.162 49.767C164.815 49.9075 164.424 49.9796 163.986 49.9796C163.549 49.9796 163.158 49.9075 162.815 49.767C162.471 49.6265 162.179 49.4241 161.939 49.1583C161.7 48.8951 161.517 48.5749 161.39 48.1991C161.262 47.822 161.199 47.398 161.199 46.926C161.199 46.4616 161.262 46.0414 161.39 45.6669C161.517 45.2923 161.7 44.9721 161.939 44.7089C162.179 44.4432 162.471 44.2407 162.815 44.1002C163.158 43.9585 163.549 43.8889 163.986 43.8889C164.424 43.8889 164.815 43.9585 165.162 44.1002C165.506 44.2407 165.8 44.4432 166.039 44.7089C166.279 44.9721 166.463 45.2923 166.588 45.6669C166.716 46.0414 166.78 46.4616 166.78 46.926ZM167.661 46.2515H170.477V47.2424H167.661V46.2515ZM176.489 47.784C176.474 47.922 176.445 48.0738 176.404 48.2383C176.36 48.4016 176.298 48.5661 176.217 48.7293C176.134 48.89 176.028 49.047 175.899 49.1963C175.769 49.3469 175.612 49.4797 175.428 49.5949C175.242 49.7126 175.026 49.8037 174.774 49.8746C174.523 49.9442 174.238 49.9796 173.916 49.9796C173.74 49.9796 173.554 49.9568 173.361 49.9176C173.166 49.8771 172.976 49.8075 172.79 49.7101C172.604 49.6139 172.431 49.4911 172.264 49.3393C172.098 49.1874 171.952 48.9989 171.825 48.7723C171.701 48.5483 171.602 48.2864 171.526 47.989C171.451 47.6904 171.414 47.3487 171.414 46.9627C171.414 46.4869 171.485 46.0617 171.627 45.6808C171.769 45.3011 171.96 44.9772 172.197 44.714C172.435 44.4482 172.71 44.2457 173.026 44.1027C173.342 43.961 173.675 43.8889 174.022 43.8889C174.336 43.8889 174.613 43.9205 174.855 43.9851C175.096 44.0509 175.307 44.1344 175.487 44.242C175.666 44.3508 175.818 44.4723 175.94 44.6153C176.065 44.7557 176.164 44.9038 176.241 45.0595C176.317 45.2151 176.375 45.372 176.415 45.5327C176.453 45.6935 176.478 45.8478 176.489 45.9934H175.524C175.473 45.6049 175.331 45.2986 175.102 45.0772C174.872 44.857 174.55 44.7456 174.135 44.7456C173.849 44.7456 173.602 44.8013 173.392 44.9114C173.18 45.0227 173.005 45.1771 172.863 45.3758C172.724 45.5732 172.618 45.8124 172.549 46.0921C172.48 46.3743 172.446 46.6818 172.446 47.0171C172.446 47.3955 172.484 47.722 172.559 47.9941C172.633 48.2687 172.739 48.4927 172.878 48.6686C173.016 48.8458 173.185 48.9761 173.386 49.0596C173.586 49.1444 173.813 49.1861 174.068 49.1861C174.245 49.1861 174.416 49.1545 174.577 49.0925C174.738 49.0305 174.881 48.9394 175.009 48.8179C175.136 48.7002 175.245 48.5509 175.335 48.3775C175.425 48.2029 175.488 48.0042 175.524 47.784H176.489ZM179.109 44.9228H177.04V44.0648H182.213V44.9228H180.143V49.8025H179.109V44.9228ZM183.199 44.0648H184.231V44.8532H184.254C184.321 44.7216 184.406 44.595 184.508 44.4786C184.611 44.3596 184.734 44.2571 184.88 44.1686C185.023 44.0838 185.191 44.0141 185.378 43.9648C185.567 43.9129 185.784 43.8889 186.027 43.8889C186.349 43.8889 186.657 43.9483 186.952 44.0648C187.246 44.1837 187.509 44.3596 187.736 44.595C187.965 44.8304 188.147 45.1278 188.283 45.4821C188.416 45.839 188.484 46.2515 188.484 46.721C188.484 47.312 188.42 47.8131 188.295 48.2244C188.17 48.637 187.994 48.9736 187.764 49.233C187.531 49.4949 187.255 49.6848 186.928 49.8025C186.605 49.9189 186.241 49.9796 185.841 49.9796C185.644 49.9796 185.458 49.9543 185.286 49.905C185.114 49.8531 184.961 49.7898 184.822 49.7088C184.687 49.6278 184.57 49.5392 184.472 49.4405C184.375 49.3431 184.302 49.2469 184.254 49.1545H184.231V52.0613H183.199V44.0648ZM184.21 46.9627C184.21 47.274 184.241 47.56 184.303 47.822C184.369 48.0852 184.467 48.3143 184.599 48.5053C184.732 48.6977 184.898 48.8495 185.099 48.9596C185.297 49.0672 185.535 49.1216 185.809 49.1216C186.093 49.1216 186.338 49.0672 186.546 48.9596C186.752 48.8495 186.924 48.6977 187.059 48.5053C187.193 48.3143 187.293 48.0852 187.355 47.822C187.418 47.56 187.451 47.274 187.451 46.9627C187.451 46.6388 187.418 46.3388 187.355 46.0693C187.293 45.7985 187.193 45.5644 187.059 45.367C186.924 45.1708 186.752 45.0177 186.546 44.9101C186.338 44.8 186.093 44.7456 185.809 44.7456C185.535 44.7456 185.297 44.8 185.099 44.9101C184.898 45.0177 184.732 45.1708 184.599 45.367C184.467 45.5644 184.369 45.7985 184.303 46.0693C184.241 46.3388 184.21 46.6388 184.21 46.9627ZM193.842 46.926C193.842 46.6084 193.803 46.316 193.728 46.0503C193.653 45.7833 193.542 45.5555 193.393 45.3606C193.242 45.1695 193.057 45.0177 192.84 44.9101C192.621 44.8 192.366 44.7456 192.08 44.7456C191.792 44.7456 191.54 44.8 191.321 44.9101C191.105 45.0177 190.923 45.1695 190.772 45.3606C190.622 45.5555 190.512 45.7833 190.436 46.0503C190.362 46.316 190.323 46.6084 190.323 46.926C190.323 47.2475 190.362 47.5423 190.436 47.8131C190.512 48.0814 190.622 48.3143 190.772 48.5053C190.923 48.6977 191.105 48.8495 191.321 48.9596C191.54 49.0672 191.792 49.1216 192.08 49.1216C192.366 49.1216 192.621 49.0672 192.84 48.9596C193.057 48.8495 193.242 48.6977 193.393 48.5053C193.542 48.3143 193.653 48.0814 193.728 47.8131C193.803 47.5423 193.842 47.2475 193.842 46.926ZM194.873 46.926C194.873 47.398 194.81 47.822 194.682 48.1991C194.555 48.5749 194.372 48.8951 194.132 49.1583C193.893 49.4241 193.6 49.6265 193.255 49.767C192.908 49.9075 192.518 49.9796 192.08 49.9796C191.641 49.9796 191.251 49.9075 190.908 49.767C190.563 49.6265 190.272 49.4241 190.033 49.1583C189.793 48.8951 189.61 48.5749 189.483 48.1991C189.355 47.822 189.292 47.398 189.292 46.926C189.292 46.4616 189.355 46.0414 189.483 45.6669C189.61 45.2923 189.793 44.9721 190.033 44.7089C190.272 44.4432 190.563 44.2407 190.908 44.1002C191.251 43.9585 191.641 43.8889 192.08 43.8889C192.518 43.8889 192.908 43.9585 193.255 44.1002C193.6 44.2407 193.893 44.4432 194.132 44.7089C194.372 44.9721 194.555 45.2923 194.682 45.6669C194.81 46.0414 194.873 46.4616 194.873 46.926ZM196.035 44.0648H197.067V48.4636H197.088L200.038 44.0648H201.222V49.8025H200.184V45.4049H200.163L197.219 49.8025H196.035V44.0648ZM204.336 44.9228H202.266V44.0648H207.439V44.9228H205.37V49.8025H204.336V44.9228ZM213.597 47.97C213.557 48.2206 213.467 48.4661 213.328 48.7028C213.189 48.9432 213.009 49.157 212.786 49.3469C212.559 49.5354 212.294 49.6886 211.99 49.8037C211.686 49.9214 211.349 49.9796 210.978 49.9796C210.574 49.9796 210.2 49.9151 209.859 49.7898C209.516 49.6607 209.222 49.4709 208.973 49.2153C208.723 48.9609 208.529 48.6395 208.387 48.2535C208.243 47.8675 208.173 47.4145 208.173 46.8931C208.173 46.5439 208.213 46.2262 208.294 45.9427C208.374 45.6593 208.482 45.4049 208.619 45.1822C208.756 44.9595 208.913 44.7671 209.094 44.6039C209.274 44.4419 209.463 44.3078 209.662 44.2015C209.863 44.0964 210.068 44.0179 210.276 43.9661C210.485 43.9154 210.689 43.8889 210.882 43.8889C211.294 43.8889 211.671 43.9483 212.009 44.0648C212.351 44.1837 212.644 44.3634 212.889 44.6039C213.134 44.8456 213.323 45.1467 213.46 45.5087C213.597 45.8719 213.666 46.2971 213.666 46.7868V47.2791H209.274C209.277 47.5575 209.318 47.8106 209.396 48.0371C209.475 48.2649 209.588 48.4585 209.734 48.6192C209.878 48.7787 210.055 48.9027 210.264 48.99C210.47 49.0786 210.706 49.1216 210.966 49.1216C211.233 49.1216 211.456 49.0849 211.64 49.0141C211.824 48.9432 211.978 48.8508 212.1 48.742C212.224 48.6306 212.323 48.5079 212.4 48.3725C212.476 48.2371 212.542 48.1017 212.593 47.97H213.597ZM212.629 46.4907C212.62 46.2135 212.577 45.9643 212.495 45.7466C212.415 45.5289 212.303 45.3467 212.159 45.1986C212.015 45.0506 211.841 44.9367 211.64 44.8608C211.437 44.7836 211.213 44.7456 210.966 44.7456C210.73 44.7456 210.514 44.7886 210.317 44.8772C210.118 44.9645 209.943 45.0848 209.794 45.2404C209.644 45.3961 209.524 45.5808 209.436 45.7922C209.347 46.0048 209.291 46.2389 209.274 46.4907H212.629ZM218.916 44.9228H216.617L216.57 46.2996C216.548 46.9956 216.492 47.5765 216.402 48.0434C216.313 48.5079 216.189 48.8824 216.035 49.1634C215.879 49.4468 215.692 49.6468 215.472 49.7632C215.251 49.8822 214.998 49.9404 214.713 49.9404C214.61 49.9404 214.518 49.9265 214.442 49.8948C214.365 49.8657 214.307 49.8354 214.266 49.8025V48.9331C214.41 48.9887 214.541 49.0141 214.652 49.0141C214.731 49.0141 214.807 49.0014 214.88 48.9774C214.953 48.952 215.021 48.9039 215.086 48.8331C215.152 48.7622 215.213 48.6597 215.271 48.5294C215.326 48.4003 215.375 48.2295 215.418 48.0181C215.462 47.8068 215.496 47.5537 215.525 47.2512C215.552 46.9513 215.573 46.5957 215.584 46.1819L215.634 44.0648H219.948V49.8025H218.916V44.9228ZM221.468 44.0648H222.501V46.2237H224.166C224.495 46.2237 224.789 46.2667 225.046 46.3502C225.304 46.4338 225.524 46.5527 225.702 46.7084C225.882 46.864 226.019 47.0526 226.116 47.2715C226.211 47.4917 226.256 47.7384 226.256 48.0118C226.256 48.2915 226.211 48.5408 226.116 48.7597C226.019 48.9799 225.882 49.1672 225.702 49.3228C225.524 49.4785 225.304 49.5974 225.046 49.6797C224.789 49.762 224.495 49.8025 224.166 49.8025H221.468V44.0648ZM222.501 49.0141H223.963C224.143 49.0141 224.31 48.9976 224.465 48.9609C224.621 48.9267 224.754 48.8673 224.867 48.7875C224.979 48.7065 225.067 48.6028 225.131 48.4762C225.195 48.351 225.225 48.1953 225.225 48.0118C225.225 47.8346 225.192 47.6828 225.127 47.5575C225.063 47.4322 224.97 47.3297 224.853 47.25C224.735 47.169 224.593 47.1108 224.427 47.0728C224.26 47.0361 224.074 47.0171 223.868 47.0171H222.501V49.0141ZM227.206 44.0648H228.239V46.3793H231.042V44.0648H232.08V49.8025H231.042V47.2373H228.239V49.8025H227.206V44.0648Z" fill="#2B2B2A"/>
<path d="M233.584 45.7858C233.596 45.434 233.665 45.1404 233.792 44.8987C233.917 44.657 234.091 44.4621 234.308 44.3115C234.525 44.1622 234.782 44.0534 235.078 43.9876C235.377 43.9218 235.7 43.8889 236.053 43.8889C236.344 43.8889 236.628 43.9167 236.903 43.9737C237.177 44.0319 237.422 44.123 237.634 44.2495C237.846 44.3773 238.02 44.5419 238.148 44.7431C238.276 44.9443 238.34 45.191 238.34 45.4796V48.8166C238.34 48.9103 238.368 48.9887 238.419 49.0545C238.471 49.1203 238.555 49.1545 238.672 49.1545C238.723 49.1545 238.779 49.1495 238.835 49.1406C238.891 49.1305 238.948 49.1216 239.009 49.1115V49.791C238.923 49.8126 238.836 49.8328 238.752 49.8493C238.668 49.8682 238.569 49.8771 238.453 49.8771C238.274 49.8771 238.119 49.8619 237.991 49.8354C237.863 49.8062 237.753 49.7581 237.665 49.6923C237.577 49.6265 237.508 49.5405 237.461 49.4342C237.412 49.3304 237.38 49.2001 237.364 49.047C237.238 49.1786 237.104 49.3013 236.961 49.4139C236.819 49.5253 236.66 49.6253 236.483 49.7088C236.31 49.7923 236.112 49.8581 235.896 49.9062C235.678 49.9543 235.433 49.9796 235.16 49.9796C234.929 49.9796 234.703 49.9429 234.485 49.8721C234.267 49.7999 234.069 49.6936 233.895 49.5557C233.72 49.4165 233.583 49.2444 233.477 49.0394C233.372 48.8331 233.32 48.5952 233.32 48.3231C233.32 48.027 233.372 47.7714 233.477 47.555C233.583 47.3398 233.719 47.1589 233.887 47.0133C234.056 46.8691 234.248 46.7577 234.465 46.6792C234.681 46.6008 234.902 46.5489 235.126 46.5236L236.815 46.3262C236.976 46.3085 237.102 46.2477 237.194 46.1452C237.286 46.0452 237.332 45.8807 237.332 45.6555C237.332 45.31 237.213 45.0607 236.976 44.9101C236.738 44.7582 236.395 44.6811 235.952 44.6811C235.495 44.6811 235.155 44.7747 234.931 44.9569C234.706 45.1417 234.578 45.4176 234.549 45.7858H233.584ZM237.309 46.8817C237.227 46.9412 237.125 46.9868 237.002 47.0247C236.881 47.0614 236.748 47.0943 236.602 47.1184C236.457 47.1437 236.302 47.1652 236.138 47.1854C235.972 47.2057 235.807 47.2259 235.644 47.2475C235.455 47.2715 235.283 47.3082 235.126 47.3537C234.969 47.4018 234.833 47.4613 234.716 47.5372C234.601 47.6119 234.512 47.7018 234.449 47.8068C234.385 47.9118 234.352 48.0358 234.352 48.1788C234.352 48.3433 234.38 48.4876 234.433 48.6142C234.489 48.7382 234.563 48.8445 234.659 48.928C234.753 49.014 234.87 49.0786 235.003 49.1216C235.137 49.1634 235.286 49.1861 235.445 49.1861C235.547 49.1861 235.664 49.1748 235.795 49.1507C235.924 49.1279 236.061 49.0925 236.198 49.047C236.336 49.0014 236.472 48.9406 236.604 48.8672C236.738 48.7951 236.858 48.7053 236.961 48.6028C237.066 48.499 237.15 48.3813 237.213 48.2484C237.276 48.1168 237.309 47.9688 237.309 47.8043V46.8817ZM244.87 49.8024H243.832V47.5309H242.503C242.264 47.5309 242.056 47.5347 241.877 47.5436C241.701 47.5537 241.55 47.5866 241.425 47.6423C241.303 47.7018 241.208 47.7891 241.138 47.9118C241.067 48.0321 241.024 48.2054 241.007 48.4307L240.96 49.047C240.956 49.0647 240.952 49.1001 240.949 49.1545C240.945 49.2077 240.939 49.2697 240.927 49.3443C240.916 49.4177 240.901 49.4949 240.882 49.5772C240.863 49.6594 240.842 49.7341 240.814 49.8024H239.676C239.702 49.7695 239.727 49.7366 239.752 49.7037C239.776 49.6683 239.8 49.6215 239.825 49.5607C239.849 49.5 239.871 49.4215 239.892 49.3254C239.913 49.2292 239.932 49.1052 239.951 48.9559L240.018 48.2219C240.042 48.0283 240.068 47.8713 240.1 47.7511C240.131 47.6296 240.177 47.5271 240.235 47.4474C240.291 47.3664 240.368 47.3006 240.462 47.25C240.554 47.1981 240.674 47.1449 240.814 47.093C240.171 46.8691 239.849 46.416 239.849 45.7301C239.849 45.5606 239.873 45.4011 239.917 45.2568C239.962 45.1126 240.021 44.9823 240.094 44.8696C240.167 44.7545 240.25 44.6532 240.342 44.5659C240.432 44.4786 240.525 44.4065 240.619 44.3508C240.734 44.2786 240.863 44.2242 241 44.185C241.138 44.1496 241.278 44.1217 241.417 44.1027C241.558 44.085 241.695 44.0736 241.829 44.0698C241.965 44.0673 242.088 44.0648 242.201 44.0648H244.87V49.8024ZM243.832 44.9329H242.262C242.128 44.9329 242.012 44.9329 241.914 44.9354C241.818 44.9367 241.731 44.943 241.659 44.9493C241.587 44.9569 241.519 44.9683 241.46 44.986C241.401 45.005 241.339 45.0303 241.274 45.0607C241.145 45.1328 241.044 45.2391 240.975 45.3771C240.905 45.5163 240.871 45.6643 240.871 45.8213C240.871 45.9757 240.895 46.1047 240.944 46.211C240.993 46.316 241.058 46.4034 241.138 46.4704C241.219 46.5388 241.307 46.5919 241.406 46.6286C241.505 46.6666 241.607 46.6919 241.709 46.7084C241.812 46.7248 241.911 46.7337 242.009 46.7375C242.107 46.7413 242.191 46.7438 242.262 46.7438H243.832V44.9329ZM249.59 44.0648H250.622V46.84L253.657 44.0648H255.009L252.187 46.5983L255.053 49.8024H253.723L251.379 47.1981L250.622 47.8043V49.8024H249.59V44.0648ZM260.079 46.926C260.079 46.6084 260.041 46.316 259.966 46.0503C259.892 45.7833 259.78 45.5555 259.63 45.3606C259.479 45.1695 259.296 45.0177 259.077 44.9101C258.859 44.8 258.605 44.7456 258.317 44.7456C258.031 44.7456 257.777 44.8 257.559 44.9101C257.342 45.0177 257.161 45.1695 257.009 45.3606C256.86 45.5555 256.749 45.7833 256.675 46.0503C256.599 46.316 256.562 46.6084 256.562 46.926C256.562 47.2475 256.599 47.5423 256.675 47.8131C256.749 48.0814 256.86 48.3143 257.009 48.5053C257.161 48.6977 257.342 48.8495 257.559 48.9596C257.777 49.0672 258.031 49.1216 258.317 49.1216C258.605 49.1216 258.859 49.0672 259.077 48.9596C259.296 48.8495 259.479 48.6977 259.63 48.5053C259.78 48.3143 259.892 48.0814 259.966 47.8131C260.041 47.5423 260.079 47.2475 260.079 46.926ZM261.11 46.926C261.11 47.398 261.047 47.822 260.919 48.1991C260.792 48.5749 260.609 48.8951 260.37 49.1583C260.13 49.4241 259.838 49.6265 259.493 49.767C259.146 49.9075 258.756 49.9796 258.317 49.9796C257.879 49.9796 257.488 49.9075 257.145 49.767C256.801 49.6265 256.51 49.4241 256.27 49.1583C256.032 48.8951 255.847 48.5749 255.721 48.1991C255.593 47.822 255.529 47.398 255.529 46.926C255.529 46.4616 255.593 46.0414 255.721 45.6669C255.847 45.2923 256.032 44.9721 256.27 44.7089C256.51 44.4432 256.801 44.2407 257.145 44.1002C257.488 43.9585 257.879 43.8889 258.317 43.8889C258.756 43.8889 259.146 43.9585 259.493 44.1002C259.838 44.2407 260.13 44.4432 260.37 44.7089C260.609 44.9721 260.792 45.2923 260.919 45.6669C261.047 46.0414 261.11 46.4616 261.11 46.926ZM262.273 44.0648H263.777L265.364 48.7685H265.385L266.994 44.0648H268.409V49.8024H267.444V45.186H267.422L265.835 49.8024H264.846L263.259 45.186H263.236V49.8024H262.273V44.0648ZM273.759 44.9228H270.956V49.8024H269.925V44.0648H274.797V49.8024H273.759V44.9228ZM276.303 45.7858C276.314 45.434 276.383 45.1404 276.509 44.8987C276.636 44.657 276.808 44.4621 277.026 44.3115C277.242 44.1622 277.499 44.0534 277.795 43.9876C278.094 43.9218 278.419 43.8889 278.77 43.8889C279.062 43.8889 279.345 43.9167 279.621 43.9737C279.895 44.0319 280.14 44.123 280.352 44.2495C280.565 44.3773 280.737 44.5419 280.865 44.7431C280.993 44.9443 281.058 45.191 281.058 45.4796V48.8166C281.058 48.9103 281.085 48.9887 281.136 49.0545C281.189 49.1203 281.273 49.1545 281.39 49.1545C281.442 49.1545 281.497 49.1495 281.552 49.1406C281.607 49.1305 281.665 49.1216 281.727 49.1115V49.791C281.64 49.8126 281.555 49.8328 281.47 49.8493C281.386 49.8682 281.286 49.8771 281.171 49.8771C280.992 49.8771 280.836 49.8619 280.708 49.8354C280.58 49.8062 280.47 49.7581 280.382 49.6923C280.294 49.6265 280.225 49.5405 280.178 49.4342C280.13 49.3304 280.097 49.2001 280.082 49.047C279.955 49.1786 279.822 49.3013 279.677 49.4139C279.537 49.5253 279.377 49.6253 279.201 49.7088C279.027 49.7923 278.829 49.8581 278.613 49.9062C278.395 49.9543 278.15 49.9796 277.878 49.9796C277.647 49.9796 277.421 49.9429 277.202 49.8721C276.984 49.7999 276.786 49.6936 276.613 49.5557C276.438 49.4165 276.3 49.2444 276.195 49.0394C276.09 48.8331 276.037 48.5952 276.037 48.3231C276.037 48.027 276.09 47.7714 276.195 47.555C276.3 47.3398 276.436 47.1589 276.604 47.0133C276.774 46.8691 276.965 46.7577 277.183 46.6792C277.4 46.6008 277.619 46.5489 277.843 46.5236L279.532 46.3262C279.693 46.3085 279.82 46.2477 279.911 46.1452C280.003 46.0452 280.049 45.8807 280.049 45.6555C280.049 45.31 279.93 45.0607 279.693 44.9101C279.456 44.7582 279.113 44.6811 278.669 44.6811C278.214 44.6811 277.872 44.7747 277.648 44.9569C277.425 45.1417 277.296 45.4176 277.268 45.7858H276.303ZM280.027 46.8817C279.944 46.9412 279.842 46.9868 279.72 47.0247C279.6 47.0614 279.465 47.0943 279.319 47.1184C279.174 47.1437 279.019 47.1652 278.855 47.1854C278.69 47.2057 278.525 47.2259 278.361 47.2475C278.173 47.2715 278 47.3082 277.843 47.3537C277.686 47.4018 277.55 47.4613 277.433 47.5372C277.319 47.6119 277.229 47.7018 277.166 47.8068C277.103 47.9118 277.07 48.0358 277.07 48.1788C277.07 48.3433 277.097 48.4876 277.151 48.6142C277.206 48.7382 277.28 48.8445 277.377 48.928C277.47 49.014 277.587 49.0786 277.721 49.1216C277.856 49.1634 278.003 49.1861 278.163 49.1861C278.265 49.1861 278.382 49.1748 278.511 49.1507C278.642 49.1279 278.778 49.0925 278.916 49.047C279.054 49.0014 279.19 48.9406 279.322 48.8672C279.456 48.7951 279.574 48.7053 279.677 48.6028C279.783 48.499 279.867 48.3813 279.93 48.2484C279.994 48.1168 280.027 47.9688 280.027 47.8043V46.8817ZM282.703 44.0648H283.735V46.3793H286.538V44.0648H287.576V49.8024H286.538V47.2373H283.735V49.8024H282.703V44.0648ZM289.092 44.0648H290.124V48.4636H290.145L293.097 44.0648H294.279V49.8024H293.241V45.4049H293.221L290.276 49.8024H289.092V44.0648ZM300.681 49.8024H299.643V47.5309H298.314C298.075 47.5309 297.865 47.5347 297.688 47.5436C297.511 47.5537 297.36 47.5866 297.236 47.6423C297.114 47.7018 297.017 47.7891 296.948 47.9118C296.878 48.0321 296.834 48.2054 296.816 48.4307L296.771 49.047C296.767 49.0647 296.763 49.1001 296.76 49.1545C296.756 49.2077 296.749 49.2697 296.738 49.3443C296.727 49.4177 296.712 49.4949 296.692 49.5772C296.673 49.6594 296.651 49.7341 296.625 49.8024H295.485C295.513 49.7695 295.537 49.7366 295.562 49.7037C295.587 49.6683 295.61 49.6215 295.635 49.5607C295.66 49.5 295.681 49.4215 295.702 49.3254C295.723 49.2292 295.742 49.1052 295.762 48.9559L295.828 48.2219C295.851 48.0283 295.879 47.8713 295.911 47.7511C295.942 47.6296 295.988 47.5271 296.045 47.4474C296.102 47.3664 296.179 47.3006 296.273 47.25C296.365 47.1981 296.483 47.1449 296.625 47.093C295.982 46.8691 295.66 46.416 295.66 45.7301C295.66 45.5606 295.683 45.4011 295.727 45.2568C295.773 45.1126 295.832 44.9823 295.905 44.8696C295.978 44.7545 296.06 44.6532 296.153 44.5659C296.242 44.4786 296.336 44.4065 296.429 44.3508C296.545 44.2786 296.673 44.2242 296.811 44.185C296.948 44.1496 297.089 44.1217 297.228 44.1027C297.368 44.085 297.506 44.0736 297.64 44.0698C297.776 44.0673 297.898 44.0648 298.011 44.0648H300.681V49.8024ZM299.643 44.9329H298.073C297.938 44.9329 297.821 44.9329 297.724 44.9354C297.628 44.9367 297.542 44.943 297.469 44.9493C297.396 44.9569 297.33 44.9683 297.27 44.986C297.211 45.005 297.149 45.0303 297.085 45.0607C296.954 45.1328 296.855 45.2391 296.786 45.3771C296.716 45.5163 296.68 45.6643 296.68 45.8213C296.68 45.9757 296.706 46.1047 296.753 46.211C296.804 46.316 296.868 46.4034 296.948 46.4704C297.028 46.5388 297.118 46.5919 297.217 46.6286C297.316 46.6666 297.418 46.6919 297.52 46.7084C297.623 46.7248 297.722 46.7337 297.82 46.7375C297.918 46.7413 298.002 46.7438 298.073 46.7438H299.643V44.9329Z" fill="#2B2B2A"/>
</svg>